<?xml version="1.0" encoding="utf-8"?>
<!-- Generator: Adobe Illustrator 18.0.0, SVG Export Plug-In . SVG Version: 6.00 Build 0)  -->
<!DOCTYPE svg PUBLIC "-//W3C//DTD SVG 1.1//EN" "http://www.w3.org/Graphics/SVG/1.1/DTD/svg11.dtd">
<svg version="1.1" id="Layer_1" xmlns="http://www.w3.org/2000/svg" xmlns:xlink="http://www.w3.org/1999/xlink" x="0px" y="0px"
	 viewBox="0 0 2834.6 2834.6" enable-background="new 0 0 2834.6 2834.6" xml:space="preserve">
<path fill="#3C98CF" stroke="#3C98CF" stroke-miterlimit="10" d="M2051.5,1539.7c10.8,8.1,19.9,17.2,30.8,22.7
	c218.8,111.2,333.1,290.3,344.7,534.3c4.3,90.4,2.7,181.1,2.3,271.7c-0.3,50.2-18.5,66.4-69,66.4c-103.4,0.1-206.8,0-310.2,0
	c-10.7,0-21.4,0-34.2,0c0,26.6,0,50.7,0,74.9c0,55.4-16.3,71.9-71.5,71.9c-355.5,0-711.1,0-1066.6,0c-45.5,0-63.4-16.7-65.5-63.3
	c-1.1-24.4-0.2-48.9-0.2-76.6c-13.4-0.7-23.8-1.8-34.1-1.8c-105.4-0.1-210.8,0.1-316.1-0.2c-42.3-0.1-61-16.9-61.1-58.3
	c-0.4-103.4-3.2-207,2.4-310.1c12.3-225.7,130.1-386.2,320.6-498.5c16.7-9.9,34.1-18.6,54.9-29.9c-47.5-47.9-93-93.8-138.4-139.7
	c-45.8-46.4-80.2-99.9-94.5-164c-24.9-112.1,10.2-207.6,84.6-291c104.9-117.5,210.1-234.6,315-352.1
	c66.2-74.2,131.9-148.8,197.9-223.1c78.2-88,176.6-132.5,293.7-123c94.7,7.7,178.9,46.2,243.8,118.3
	c173.7,193.2,347.3,386.6,519.7,581.1c129.4,145.9,122.8,321.2-14.5,458.7c-32.7,32.8-64.7,66.2-97.4,98.9
	C2078.1,1517.4,2066.6,1526.4,2051.5,1539.7z M642.4,1226.4c6.2,10.3,11,18.7,16.3,26.8c62.2,97.4,149,172.4,229.5,253.3
	c21.4,21.5,50,40.4,43.6,75.3c-7.1,38.1-41.8,45.9-73.1,55.5c-163.2,50.3-269,157.6-327.2,318.2c-44.8,123.8-21,251-32.7,376.5
	c106.5,0,211.1,0,315.2,0c1-4.4,1.7-6.3,1.7-8.1c0.2-110.3,0-220.7,0.4-331c0.4-134.1,77.2-210.9,211.1-211c265-0.2,530-0.2,795,0.2
	c18.5,0,37.7,1.5,55.4,6.5c90.6,25.6,138.8,90.8,140,191c1.2,107.4,0.3,214.7,0.3,322.1c0,10.4,0,20.8,0,30.3
	c106.3,0,208.1,0,311.2,0c0-90.1,3.8-177.8-0.9-265.1c-7.3-136.3-65.5-249.5-170-338.3c-58-49.2-124.6-81.8-197-103.7
	c-60.8-18.4-69.2-52.3-25.2-98.4c2.7-2.8,5.6-5.6,8.3-8.4c61.8-62.2,124.8-123.2,184.7-187.2c21.7-23.1,36.7-52.8,53.2-80.4
	c12.1-20.3,8.4-35.6-16.7-45c-53.3-20.1-105.1-44.3-158.8-63.1c-38.4-13.4-78.8-20.8-122.5-32c2.1,133.2-34.3,248.3-120.9,343.9
	c-86.3,95.2-193.5,150.3-323.4,156c-110.4,4.8-209.2-26-296.8-95.1c-130.1-102.6-186.6-239.1-187.7-404
	C844.2,1137.2,741.4,1173.4,642.4,1226.4z M1912.9,2481.2c1.7-5.6,3.2-8.3,3.2-11c0.1-164.4,0.9-328.8-0.4-493.2
	c-0.4-54.4-30.5-82.6-84.5-86.7c-12.7-1-25.5-2-38.3-2c-253-0.1-506-0.2-759,0.1c-17.7,0-35.6,0.7-52.9,3.8
	c-45.6,8.3-66.2,40.2-66.3,103.3c-0.4,150.6,0.5,301.3-0.7,451.9c-0.2,26.7,6.7,34.6,34.3,34.5c312.1-1,624.2-0.6,936.2-0.6
	C1894.1,2481.2,1903.7,2481.2,1912.9,2481.2z M608.9,1104.6c521.6-202.5,1042.3-212.3,1566-17.9c-11.6-22.3-23.1-42.8-38.2-60.2
	c-67.1-77.3-134.8-154.1-203.2-230.2c-107.9-120-215.5-240.3-325.2-358.6c-107.9-116.4-286.7-117.1-387.5-3.8
	c-94.8,106.6-187.5,215.2-284.8,319.6c-106.4,114.1-196.6,243.8-322.7,339.1C612,1093.5,611.9,1096.1,608.9,1104.6z M1056.9,1082.7
	c-23.9,139.6,40.2,286.8,159.6,361.5c132.2,82.7,265.4,86.3,399-0.3c130.5-84.6,179.1-229.3,161.2-363.5
	C1537.5,1041.7,1297.9,1041.5,1056.9,1082.7z"/>
<path fill="#3C98CF" stroke="#3C98CF" stroke-miterlimit="10" d="M1414,2158.1c-70.8,0-141.6,1.3-212.3-0.9
	c-17.8-0.6-39.4-8.5-51.9-20.6c-25.4-24.5-12.5-64.2,21.5-74.3c10.2-3,21.2-4.4,31.9-4.4c141.6-0.3,283.1-0.4,424.7-0.1
	c38,0.1,61.8,17.8,64.7,46.6c3.2,31.3-13.1,51.2-48.7,52.8c-48,2.1-96.2,0.9-144.3,1C1471,2158.1,1442.5,2158.1,1414,2158.1z"/>
</svg>
