<?xml version="1.0" encoding="utf-8"?>
<!-- Generator: Adobe Illustrator 18.0.0, SVG Export Plug-In . SVG Version: 6.00 Build 0)  -->
<!DOCTYPE svg PUBLIC "-//W3C//DTD SVG 1.1//EN" "http://www.w3.org/Graphics/SVG/1.1/DTD/svg11.dtd">
<svg version="1.1" id="Layer_1" xmlns="http://www.w3.org/2000/svg" xmlns:xlink="http://www.w3.org/1999/xlink" x="0px" y="0px"
	 viewBox="0 0 2834.6 2834.6" enable-background="new 0 0 2834.6 2834.6" xml:space="preserve">
<g>
	<g>
		<defs>
			<rect id="SVGID_1_" x="65.1" y="58.9" width="2710.8" height="2716.8"/>
		</defs>
		<clipPath id="SVGID_2_">
			<use xlink:href="#SVGID_1_"  overflow="visible"/>
		</clipPath>
		<g clip-path="url(#SVGID_2_)">
			<path fill="#3C98CF" stroke="#3C98CF" stroke-miterlimit="10" d="M2509.6,200.3c48,15.1,90.9,32.7,108.5,80.5
				c10.1,22.7,20.2,47.8,20.2,75.5c0,146,0,294.5,0,440.4c0,95.6-65.6,156-156.6,156c-704.4,0-1413.8,0-2120.6,0
				c-80.8,0-133.8-42.8-156.6-118.3c0-5.1-5.1-10.1-5.1-10.1c0-166.1,0-337.2,0-503.3c5.1-15.1,10.1-27.7,15.1-42.8
				c22.8-47.8,63.1-70.4,113.6-85.6C1055.4,200.3,1779.9,200.3,2509.6,200.3z M1416.4,884.9c353.5,0,699.3,0,1052.8,0
				c63.1,0,90.9-27.7,90.9-90.6c0-143.4,0-284.4,0-427.9c0-62.9-27.7-90.6-90.9-90.6c-699.3,2.5-1398.7,2.5-2100.5,2.5
				c-65.6,0-95.9,27.7-95.9,90.6c0,143.4,0,279.4,0,422.8c0,65.5,27.7,95.6,95.9,95.6C717,884.9,1070.5,884.9,1416.4,884.9z"/>
			<path fill="#3C98CF" stroke="#3C98CF" stroke-miterlimit="10" d="M197,1164.3c15.1-47.8,37.9-90.6,85.9-108.2
				c27.7-10.1,58.1-20.1,85.9-20.1c429.2,0,858.3,0,1282.5,0c272.7,0,542.8,0,810.4,0c113.6,0,176.7,62.9,176.7,176.1
				c0,138.4,0,271.8,0,407.7c0,118.3-58.1,176.1-176.7,176.1c-691.7,0-1381,0-2072.7,0c-113.6,0-146.4-22.7-189.4-128.4
				C197,1501.5,197,1330.4,197,1164.3z M1413.8,1720.5c353.5,0,704.4,0,1052.8,0c63.1,0,90.9-27.7,90.9-90.6
				c0-143.4,0-284.4,0-427.9c0-62.9-27.7-90.6-90.9-90.6c-699.3,0-1401.2,0-2100.5,0c-63.1,0-90.9,27.7-90.9,90.6
				c0,143.4,0,279.4,0,422.8c0,65.5,27.7,95.6,95.9,95.6C717,1720.5,1065.4,1720.5,1413.8,1720.5z"/>
			<path fill="#3C98CF" stroke="#3C98CF" stroke-miterlimit="10" d="M197,2002.3c15.1-47.8,37.9-90.6,85.9-108.2
				c27.7-10.1,58.1-20.1,85.9-20.1c429.2,0,858.3,0,1282.5,0c272.7,0,542.8,0,810.4,0c113.6,0,176.7,62.9,176.7,176.1
				c0,138.4,0,271.8,0,407.7c0,118.3-58.1,176.1-176.7,176.1c-691.7,0-1381,0-2072.7,0c-113.6,0-146.4-22.7-189.4-128.4
				C197,2337.1,197,2168.5,197,2002.3z M1416.4,1949.5c-353.5,0-704.4,0-1052.8,0c-58.1,0-85.9,27.7-85.9,85.6
				c0,143.4,0,289.5,0,432.9c0,57.9,27.7,90.6,90.9,90.6c699.3,0,1406.2,0,2105.5,0c63.1,0,90.9-27.7,90.9-90.6
				c0-143.4,0-284.4,0-422.8c0-65.5-27.7-95.6-95.9-95.6C2118.2,1949.5,1764.7,1949.5,1416.4,1949.5z"/>
			<path fill="#3C98CF" stroke="#3C98CF" stroke-miterlimit="10" d="M883.7,618.1c-118.7,0-242.3,0-361,0c-10.1,0-20.2,0-22.8,0
				c-22.8-5.1-32.8-20.1-32.8-37.7c0-20.1,10.1-32.7,27.7-37.7c10.1,0,20.2,0,22.8,0c242.3,0,484.7,0,724.5,0c5.1,0,10.1,0,10.1,0
				c27.7,0,42.9,15.1,42.9,37.7c0,22.7-20.2,37.7-42.9,37.7c-65.6,0-133.8,0-199.4,0C997.3,618.1,941.8,618.1,883.7,618.1z"/>
			<path fill="#3C98CF" stroke="#3C98CF" stroke-miterlimit="10" d="M2216.7,696.2c-63.1,0-113.6-52.9-113.6-113.2
				c0-60.4,53-113.2,113.6-113.2c63.1,0,113.6,52.9,113.6,113.2C2330.3,643.3,2279.8,696.2,2216.7,696.2z"/>
			<path fill="#3C98CF" stroke="#3C98CF" stroke-miterlimit="10" d="M883.7,1456.2c-118.7,0-242.3,0-361,0c-10.1,0-20.2,0-22.8,0
				c-20.2-5.1-27.7-15.1-27.7-32.7s10.1-32.7,27.7-37.7c10.1,0,15.1,0,22.8,0c242.3,0,484.7,0,729.6,0c5.1,0,15.1,0,20.2,0
				c20.2,5.1,32.8,20.1,32.8,37.7c0,20.1-15.1,32.7-32.8,32.7c-10.1,0-15.1,0-22.8,0C1126.1,1456.2,1002.3,1456.2,883.7,1456.2z"/>
			<path fill="#3C98CF" stroke="#3C98CF" stroke-miterlimit="10" d="M2332.8,1416c0,62.9-53,113.2-113.6,113.2
				c-63.1,0-113.6-52.9-113.6-113.2c0-62.9,53-113.2,113.6-113.2C2279.8,1302.7,2332.8,1355.6,2332.8,1416z"/>
			<path fill="#3C98CF" stroke="#3C98CF" stroke-miterlimit="10" d="M888.7,2213.7c118.7,0,237.3,0,358.5,0c10.1,0,20.2,0,22.8,0
				c20.2,5.1,27.7,20.1,27.7,37.7c0,20.1-10.1,32.7-27.7,32.7c-10.1,0-15.1,0-22.8,0c-242.3,0-484.7,0-729.6,0
				c-10.1,0-15.1,0-22.8,0c-20.2-5.1-27.7-15.1-27.7-32.7c0-20.1,10.1-32.7,27.7-37.7c10.1,0,20.2,0,22.8,0
				C646.4,2213.7,765.1,2213.7,888.7,2213.7z"/>
			<path fill="#3C98CF" stroke="#3C98CF" stroke-miterlimit="10" d="M2332.8,2254.1c0,62.9-53,113.2-113.6,113.2
				c-63.1,0-113.6-52.9-113.6-113.2c0-60.4,53-113.2,113.6-113.2C2279.8,2140.8,2332.8,2191.2,2332.8,2254.1z"/>
		</g>
	</g>
</g>
</svg>
