<?xml version="1.0" encoding="utf-8"?>
<!-- Generator: Adobe Illustrator 18.0.0, SVG Export Plug-In . SVG Version: 6.00 Build 0)  -->
<!DOCTYPE svg PUBLIC "-//W3C//DTD SVG 1.1//EN" "http://www.w3.org/Graphics/SVG/1.1/DTD/svg11.dtd">
<svg version="1.1" id="Layer_1" xmlns="http://www.w3.org/2000/svg" xmlns:xlink="http://www.w3.org/1999/xlink" x="0px" y="0px"
	 viewBox="0 0 2834.6 2834.6" enable-background="new 0 0 2834.6 2834.6" xml:space="preserve">
<g>
	<path fill="none" stroke="#3C98CF" stroke-width="100" stroke-linecap="round" stroke-miterlimit="10" d="M2362,1178.4l160.5,160.5
		"/>
	<path fill="none" stroke="#3C98CF" stroke-width="100" stroke-linecap="round" stroke-miterlimit="10" d="M2070.6,1469.8
		l160.5,160.5"/>
	<path fill="none" stroke="#3C98CF" stroke-width="100" stroke-linecap="round" stroke-miterlimit="10" d="M1785.6,1754.8
		l160.5,160.5"/>
	<path fill="none" stroke="#3C98CF" stroke-width="100" stroke-linecap="round" stroke-miterlimit="10" d="M1494.2,2046.2
		l160.5,160.5"/>
	<path fill="none" stroke="#3C98CF" stroke-width="100" stroke-linecap="round" stroke-miterlimit="10" d="M1209.2,2331.3
		l160.5,160.5"/>
	<path fill="none" stroke="#3C98CF" stroke-width="100" stroke-linecap="round" stroke-miterlimit="10" d="M1516.7,333l160.5,160.5"
		/>
	<path fill="none" stroke="#3C98CF" stroke-width="100" stroke-linecap="round" stroke-miterlimit="10" d="M1225.3,624.5
		l160.5,160.5"/>
	<path fill="none" stroke="#3C98CF" stroke-width="100" stroke-linecap="round" stroke-miterlimit="10" d="M940.2,909.5l160.5,160.5
		"/>
	<path fill="none" stroke="#3C98CF" stroke-width="100" stroke-linecap="round" stroke-miterlimit="10" d="M648.8,1200.9
		l160.5,160.5"/>
	<path fill="none" stroke="#3C98CF" stroke-width="100" stroke-linecap="round" stroke-miterlimit="10" d="M363.8,1485.9
		l160.5,160.5"/>
	<path fill="none" stroke="#3C98CF" stroke-width="100" stroke-miterlimit="10" d="M890.1,2497.2l-531.8-531.8
		c-42.5-42.5-36.2-117,12.8-165.9L1830.3,340.4c51-51,123.4-55.3,165.9-12.8l531.8,531.8c42.5,42.5,36.2,117-12.8,165.9L1056,2484.4
		C1007.1,2533.3,932.6,2539.7,890.1,2497.2z"/>
	<path opacity="0.29" fill="#3C98CF" enable-background="new    " d="M1083.7,2456.8l-29.8,29.8c-51,51-123.4,55.3-165.9,12.8
		l-529.6-529.6c-42.5-42.5-38.3-114.9,12.8-165.9L1830.3,344.6c51-51,123.4-55.3,165.9-12.8L2111,446.7
		c-42.5-42.5-112.7-40.4-159.5,6.4L596.6,1808c-44.7,44.7-48.9,117-6.4,159.5l491.3,491.3L1083.7,2456.8z"/>
	<path opacity="0.29" fill="#3C98CF" enable-background="new    " d="M2264.2,736l127.6,127.6c42.5,42.5,36.2,117-12.8,165.9
		l-112.7,112.7L2264.2,736z"/>
	<path opacity="0.29" fill="#3C98CF" enable-background="new    " d="M2132.3,604.1l80.8,80.8v510.5l-80.8,80.8V604.1z"/>
</g>
</svg>
