<?xml version="1.0" encoding="utf-8"?>
<!-- Generator: Adobe Illustrator 25.0.0, SVG Export Plug-In . SVG Version: 6.00 Build 0)  -->
<svg version="1.1" id="Layer_1" xmlns="http://www.w3.org/2000/svg" xmlns:xlink="http://www.w3.org/1999/xlink" x="0px" y="0px"
	 viewBox="0 0 2834 2834" style="enable-background:new 0 0 2834 2834;" xml:space="preserve">
<style type="text/css">
	.st0{fill:url(#SVGID_1_);}
	.st1{fill:#3D98D0;stroke:#3D98D0;stroke-miterlimit:10;}
	.st2{fill:url(#SVGID_2_);}
	.st3{fill:url(#SVGID_3_);}
	.st4{fill:url(#SVGID_4_);}
</style>
<linearGradient id="SVGID_1_" gradientUnits="userSpaceOnUse" x1="233.4012" y1="1042.7649" x2="1648.5377" y2="1042.7649">
	<stop  offset="0" style="stop-color:#3D98D1;stop-opacity:0.5953"/>
	<stop  offset="0.8128" style="stop-color:#3D98D1"/>
</linearGradient>
<path class="st0" d="M1417,966c79.2,0,156.7-2.3,231.5-6.7v503c-74.9,4.4-152.3,6.7-231.5,6.7c-653.7,0-1183.6-156.5-1183.6-349.4
	V616.6c0,98.8,138.8,187.9,361.9,251.5C808.2,928.7,1097.9,966,1417,966z"/>
<path class="st1" d="M1795.4,947.7c159.3-15.9,303.4-41.4,424.2-74.4v503c-120.8,32.9-264.9,58.5-424.2,74.4V947.7z"/>
<path class="st1" d="M2600.6,616.6v502.9c0,86.6-106.7,165.9-283.5,226.9V843.5C2493.9,782.4,2600.6,703.2,2600.6,616.6z"/>
<linearGradient id="SVGID_2_" gradientUnits="userSpaceOnUse" x1="233.4012" y1="1640.7996" x2="1648.5377" y2="1640.7996">
	<stop  offset="0" style="stop-color:#3D98D1;stop-opacity:0.5953"/>
	<stop  offset="0.8128" style="stop-color:#3D98D1"/>
</linearGradient>
<path class="st2" d="M1417,1564c79.2,0,156.7-2.3,231.5-6.7v503c-74.9,4.4-152.3,6.7-231.5,6.7c-653.7,0-1183.6-156.5-1183.6-349.4
	v-502.9c0,98.8,138.8,187.9,361.9,251.5C808.2,1526.7,1097.9,1564,1417,1564z"/>
<path class="st1" d="M1795.4,1545.8c159.3-15.9,303.4-41.5,424.2-74.4v503c-120.8,33-264.9,58.5-424.2,74.4V1545.8z"/>
<path class="st1" d="M2600.6,1214.6v502.9c0,86.6-106.7,165.9-283.5,226.9v-502.9C2493.9,1380.5,2600.6,1301.2,2600.6,1214.6z"/>
<linearGradient id="SVGID_3_" gradientUnits="userSpaceOnUse" x1="233.4012" y1="2248.3469" x2="1648.5377" y2="2248.3469">
	<stop  offset="0" style="stop-color:#3D98D1;stop-opacity:0.5953"/>
	<stop  offset="0.8128" style="stop-color:#3D98D1"/>
</linearGradient>
<path class="st3" d="M1417,2171.6c79.2,0,156.7-2.3,231.5-6.7v503c-74.9,4.4-152.3,6.7-231.5,6.7
	c-653.7,0-1183.6-156.5-1183.6-349.4v-502.9c0,98.8,138.8,187.9,361.9,251.5C808.2,2134.3,1097.9,2171.6,1417,2171.6z"/>
<path class="st1" d="M1795.4,2153.3c159.3-15.9,303.4-41.4,424.2-74.4v503c-120.8,32.9-264.9,58.5-424.2,74.4V2153.3z"/>
<path class="st1" d="M2600.6,1822.2v502.9c0,86.6-106.7,165.9-283.5,226.9v-502.9C2493.9,1988,2600.6,1908.8,2600.6,1822.2z"/>
<linearGradient id="SVGID_4_" gradientUnits="userSpaceOnUse" x1="233.3913" y1="499.0619" x2="2600.5991" y2="499.0619">
	<stop  offset="0" style="stop-color:#3D98D1;stop-opacity:0.5953"/>
	<stop  offset="0.8128" style="stop-color:#3D98D1"/>
</linearGradient>
<path class="st4" d="M2600.6,499.1c0,98.8-138.8,187.9-361.9,251.5c-212.8,60.7-502.5,97.9-821.7,97.9
	c-319.2,0-608.9-37.3-821.7-97.9C372.2,687,233.4,597.8,233.4,499.1c0-193,529.9-349.4,1183.6-349.4
	C2070.7,149.6,2600.6,306.1,2600.6,499.1z"/>
</svg>
