<?xml version="1.0" encoding="utf-8"?>
<!-- Generator: Adobe Illustrator 18.0.0, SVG Export Plug-In . SVG Version: 6.00 Build 0)  -->
<!DOCTYPE svg PUBLIC "-//W3C//DTD SVG 1.1//EN" "http://www.w3.org/Graphics/SVG/1.1/DTD/svg11.dtd">
<svg version="1.1" id="Layer_1" xmlns="http://www.w3.org/2000/svg" xmlns:xlink="http://www.w3.org/1999/xlink" x="0px" y="0px"
	 viewBox="0 0 2834.6 2834.6" enable-background="new 0 0 2834.6 2834.6" xml:space="preserve">
<g>
	<g>
		<path id="SVGID_1_" fill="#3C98CF" d="M383.2,2244.6c-40.2,0-82.2,0-125.8,0c0-101.4,0-200.8,0-302.7c42.8,0,84.7,0,128.6,0
			c0-123.6,0-244.9,0-368.9c-41.7,0-83.5,0-127.7,0c0-101.8,0-201.1,0-302.8c41.5,0,83.3,0,127.5,0c0-123.6,0-244.7,0-368.4
			c-42.4,0-84.2,0-128,0c0-101.9,0-201.2,0-302.8c43,0,84.9,0,127.5,0c2.9-38.2,2.8-74.6,8.8-110c16.5-97.9,92.5-177.1,185.9-196.3
			c15.6-3.2,32.1-3.5,48.2-3.5c512.8-0.2,1025.6,1.4,1538.3-1.3c122.2-0.6,203,71.1,233.3,158.2c10.7,30.8,13,64.4,17.6,96.9
			c2,13.9,0.3,28.4,0.3,45.4c49.5,0,96.7,0,145.2,0c0,214.1,0,425.2,0,639.2c-47.8,0-95,0-143.6,0c0,24.3,0,45.9,0,69.7
			c47.8,0,94.3,0,142.9,0c0,348.5,0,694.7,0,1043.5c-48.4,0-96.5,0-138.7,0c-18.7,41.2-31.3,80.4-53,114.6
			c-45.3,71.3-113.6,106.9-203.8,106.8c-442.6-0.7-885.2-0.3-1327.8-0.3c-64.8,0-129.5,0-194.3,0c-126.8-0.1-215.8-63.4-245.2-180.3
			C388.4,2338.5,388.5,2293,383.2,2244.6z M2472.3,2255.5c0-292.6,0-581.5,0-873.6c-49,0-96.1,0-143.6,0c0-81.2,0-159.4,0-240
			c49.2,0,96.5,0,143.6,0c0-156.9,0-311.4,0-469c-49.1,0-96.2,0-145.6,0c0-45.4,2.8-87.7-0.9-129.5c-2.8-31.3-9.4-64.1-23-92.6
			c-22.9-47.5-63-77.2-122.3-77.2c-518,0.1-1036.1,0.1-1554.1-0.1c-35.4,0-65,11.7-89.5,34.8c-41,38.6-58,85.9-57.9,140
			c0.3,584.6,0.2,1169.1,0.2,1753.6c0,9.3,0,18.7,0.9,27.9c8.6,87.9,71.5,147.2,156.8,147.2c510.8,0.1,1021.7,0,1532.5,0.2
			c41.1,0,75.3-13,103.3-41.3c35.3-35.6,52.8-77.9,54.1-126.3c0.4-17.4,0.1-34.8,0.1-54.3
			C2377.1,2255.5,2423.6,2255.5,2472.3,2255.5z"/>
	</g>
	<g>
		<path id="SVGID_2_" fill="#3C98CF" d="M2222.9,2270.7c-28.4,0-54.4,0.1-80.3,0c-90.8-0.3-181.7,0.6-272.6-1.1
			c-59-1.1-100.4-39.7-106.7-95.2c-1.3-11.7-1.6-23.6-1.6-35.5c-0.1-302.9-0.1-605.9-0.1-908.8c0-11,0-21.9,0-36.7
			c-11.1,0-20.6,0-30.1,0c-100.8,0-201.5,0.1-302.3,0c-75.3-0.1-120.8-42.7-121-113.8c-0.3-124.4-0.4-248.8,0-373.1
			c0.3-88.4,45.9-130.1,139.4-130c246.5,0.2,493,0.1,739.5,0.1c11.5,0,22.9,0,35.7,0C2222.9,1142.1,2222.9,1704.5,2222.9,2270.7z
			 M2132.2,2185.9c0-509.3,0-1015.5,0-1522.9c-8.8-0.6-15.8-1.5-22.8-1.5c-222.2-0.1-444.4-0.1-666.5,0c-36.4,0-44.5,8.3-44.5,44.8
			c-0.2,121.9-0.1,243.6,0,365.5c0,32.3,4.4,36.4,39,36.4c127.7,0.1,255.5,0,383.2,0c9.6,0,19.2,0,31.2,0c0,13.3,0,23.2,0,33.3
			c0,248.7,0,497.5,0,746.2c0,87.2,0.2,174.3-0.2,261.5c-0.1,21.2,4.5,37,31.9,36.9C1965.3,2185.7,2047,2185.9,2132.2,2185.9z"/>
	</g>
	<g>
		<path id="SVGID_3_" fill="#3C98CF" d="M1123.9,1715.6c151.9,0,303.8-0.1,455.7,0.1c31.4,0,49.5,12.8,52.4,36.2
			c3,23.7-12.6,43.8-37.7,47.4c-9.7,1.4-19.7,0.9-29.6,0.9c-295.7,0-591.4,0-887.1,0c-6.2,0-12.6,0.2-18.8-0.1
			c-30.2-1.4-49.6-18.4-49.1-43.2c0.4-25.1,19.4-41.2,50.5-41.3C814.6,1715.6,969.2,1715.6,1123.9,1715.6z"/>
	</g>
	<g>
		<path id="SVGID_4_" fill="#3C98CF" d="M1121.6,2113.3c-151.9,0-303.8-0.1-455.7,0.2c-20.9,0-39.6-2.6-50.6-21.9
			c-14.6-25.3-0.4-55.2,29.6-61.3c9.5-1.9,19.6-1.5,29.4-1.5c297.5-0.1,595-0.1,892.5-0.1c5.4,0,10.8-0.2,16.2,0.1
			c31.6,1.4,49.1,16.6,49.1,42.6c-0.1,25.6-18.5,41.7-49.5,41.9c-73.7,0.3-147.4,0.1-221.1,0.1
			C1281.6,2113.3,1201.6,2113.3,1121.6,2113.3z"/>
	</g>
	<g>
		<path id="SVGID_5_" fill="#3C98CF" d="M1119.1,2183.6c153.8,0,307.4-0.1,461.2,0.1c30.9,0,49,13.3,51.5,37.1
			c2.5,22.5-9.7,40-33,45.6c-9.4,2.3-19.5,2.6-29.3,2.6c-298.4,0.2-596.9,0.1-895.3,0.1c-8,0-16.3,0.3-24.2-0.9
			c-25.4-3.9-42.6-23.9-40.3-46.1c2.2-22,20.3-37.7,45.7-38.3c29.6-0.6,59.3-0.2,88.9-0.2C869.3,2183.6,994.2,2183.6,1119.1,2183.6z
			"/>
	</g>
	<g>
		<path id="SVGID_6_" fill="#3C98CF" d="M1124.4,1869.6c151.9,0,303.8-0.1,455.7,0.1c33.1,0,52,15.7,52,42.2
			c0.1,22.7-15.9,39.9-40.8,42.7c-8.9,1-18,0.4-27,0.4c-295.7,0-591.5,0-887.1,0c-7.2,0-14.4,0.3-21.6-0.2
			c-27.1-1.9-46.7-20.7-46.1-43.8c0.6-23.4,20.4-41,48.4-41.3c66.5-0.5,133-0.2,199.6-0.2C946.4,1869.6,1035.3,1869.6,1124.4,1869.6
			z"/>
	</g>
	<g>
		<defs>
			<path id="SVGID_7_" d="M383.2,2244.6c-40.2,0-82.2,0-125.8,0c0-101.4,0-200.8,0-302.7c42.8,0,84.7,0,128.6,0
				c0-123.6,0-244.9,0-368.9c-41.7,0-83.5,0-127.7,0c0-101.8,0-201.1,0-302.8c41.5,0,83.3,0,127.5,0c0-123.6,0-244.7,0-368.4
				c-42.4,0-84.2,0-128,0c0-101.9,0-201.2,0-302.8c43,0,84.9,0,127.5,0c2.9-38.2,2.8-74.6,8.8-110c16.5-97.9,92.5-177.1,185.9-196.3
				c15.6-3.2,32.1-3.5,48.2-3.5c512.8-0.2,1025.6,1.4,1538.3-1.3c122.2-0.6,203,71.1,233.3,158.2c10.7,30.8,13,64.4,17.6,96.9
				c2,13.9,0.3,28.4,0.3,45.4c49.5,0,96.7,0,145.2,0c0,214.1,0,425.2,0,639.2c-47.8,0-95,0-143.6,0c0,24.3,0,45.9,0,69.7
				c47.8,0,94.3,0,142.9,0c0,348.5,0,694.7,0,1043.5c-48.4,0-96.5,0-138.7,0c-18.7,41.2-31.3,80.4-53,114.6
				c-45.3,71.3-113.6,106.9-203.8,106.8c-442.6-0.7-885.2-0.3-1327.8-0.3c-64.8,0-129.5,0-194.3,0
				c-126.8-0.1-215.8-63.4-245.2-180.3C388.4,2338.5,388.5,2293,383.2,2244.6z M2472.3,2255.5c0-292.6,0-581.5,0-873.6
				c-49,0-96.1,0-143.6,0c0-81.2,0-159.4,0-240c49.2,0,96.5,0,143.6,0c0-156.9,0-311.4,0-469c-49.1,0-96.2,0-145.6,0
				c0-45.4,2.8-87.7-0.9-129.5c-2.8-31.3-9.4-64.1-23-92.6c-22.9-47.5-63-77.2-122.3-77.2c-518,0.1-1036.1,0.1-1554.1-0.1
				c-35.4,0-65,11.7-89.5,34.8c-41,38.6-58,85.9-57.9,140c0.3,584.6,0.2,1169.1,0.2,1753.6c0,9.3,0,18.7,0.9,27.9
				c8.6,87.9,71.5,147.2,156.8,147.2c510.8,0.1,1021.7,0,1532.5,0.2c41.1,0,75.3-13,103.3-41.3c35.3-35.6,52.8-77.9,54.1-126.3
				c0.4-17.4,0.1-34.8,0.1-54.3C2377.1,2255.5,2423.6,2255.5,2472.3,2255.5z"/>
		</defs>
		<clipPath id="SVGID_8_">
			<use xlink:href="#SVGID_7_"  overflow="visible"/>
		</clipPath>
	</g>
	<g>
		<defs>
			<path id="SVGID_9_" d="M383.2,2244.6c-40.2,0-82.2,0-125.8,0c0-101.4,0-200.8,0-302.7c42.8,0,84.7,0,128.6,0
				c0-123.6,0-244.9,0-368.9c-41.7,0-83.5,0-127.7,0c0-101.8,0-201.1,0-302.8c41.5,0,83.3,0,127.5,0c0-123.6,0-244.7,0-368.4
				c-42.4,0-84.2,0-128,0c0-101.9,0-201.2,0-302.8c43,0,84.9,0,127.5,0c2.9-38.2,2.8-74.6,8.8-110c16.5-97.9,92.5-177.1,185.9-196.3
				c15.6-3.2,32.1-3.5,48.2-3.5c512.8-0.2,1025.6,1.4,1538.3-1.3c122.2-0.6,203,71.1,233.3,158.2c10.7,30.8,13,64.4,17.6,96.9
				c2,13.9,0.3,28.4,0.3,45.4c49.5,0,96.7,0,145.2,0c0,214.1,0,425.2,0,639.2c-47.8,0-95,0-143.6,0c0,24.3,0,45.9,0,69.7
				c47.8,0,94.3,0,142.9,0c0,348.5,0,694.7,0,1043.5c-48.4,0-96.5,0-138.7,0c-18.7,41.2-31.3,80.4-53,114.6
				c-45.3,71.3-113.6,106.9-203.8,106.8c-442.6-0.7-885.2-0.3-1327.8-0.3c-64.8,0-129.5,0-194.3,0
				c-126.8-0.1-215.8-63.4-245.2-180.3C388.4,2338.5,388.5,2293,383.2,2244.6z M2472.3,2255.5c0-292.6,0-581.5,0-873.6
				c-49,0-96.1,0-143.6,0c0-81.2,0-159.4,0-240c49.2,0,96.5,0,143.6,0c0-156.9,0-311.4,0-469c-49.1,0-96.2,0-145.6,0
				c0-45.4,2.8-87.7-0.9-129.5c-2.8-31.3-9.4-64.1-23-92.6c-22.9-47.5-63-77.2-122.3-77.2c-518,0.1-1036.1,0.1-1554.1-0.1
				c-35.4,0-65,11.7-89.5,34.8c-41,38.6-58,85.9-57.9,140c0.3,584.6,0.2,1169.1,0.2,1753.6c0,9.3,0,18.7,0.9,27.9
				c8.6,87.9,71.5,147.2,156.8,147.2c510.8,0.1,1021.7,0,1532.5,0.2c41.1,0,75.3-13,103.3-41.3c35.3-35.6,52.8-77.9,54.1-126.3
				c0.4-17.4,0.1-34.8,0.1-54.3C2377.1,2255.5,2423.6,2255.5,2472.3,2255.5z"/>
		</defs>
		<defs>
			<path id="SVGID_10_" d="M2222.9,2270.7c-28.4,0-54.4,0.1-80.3,0c-90.8-0.3-181.7,0.6-272.6-1.1c-59-1.1-100.4-39.7-106.7-95.2
				c-1.3-11.7-1.6-23.6-1.6-35.5c-0.1-302.9-0.1-605.9-0.1-908.8c0-11,0-21.9,0-36.7c-11.1,0-20.6,0-30.1,0
				c-100.8,0-201.5,0.1-302.3,0c-75.3-0.1-120.8-42.7-121-113.8c-0.3-124.4-0.4-248.8,0-373.1c0.3-88.4,45.9-130.1,139.4-130
				c246.5,0.2,493,0.1,739.5,0.1c11.5,0,22.9,0,35.7,0C2222.9,1142.1,2222.9,1704.5,2222.9,2270.7z M2132.2,2185.9
				c0-509.3,0-1015.5,0-1522.9c-8.8-0.6-15.8-1.5-22.8-1.5c-222.2-0.1-444.4-0.1-666.5,0c-36.4,0-44.5,8.3-44.5,44.8
				c-0.2,121.9-0.1,243.6,0,365.5c0,32.3,4.4,36.4,39,36.4c127.7,0.1,255.5,0,383.2,0c9.6,0,19.2,0,31.2,0c0,13.3,0,23.2,0,33.3
				c0,248.7,0,497.5,0,746.2c0,87.2,0.2,174.3-0.2,261.5c-0.1,21.2,4.5,37,31.9,36.9C1965.3,2185.7,2047,2185.9,2132.2,2185.9z"/>
		</defs>
		<clipPath id="SVGID_11_">
			<use xlink:href="#SVGID_9_"  overflow="visible"/>
		</clipPath>
		<clipPath id="SVGID_12_" clip-path="url(#SVGID_11_)">
			<use xlink:href="#SVGID_10_"  overflow="visible"/>
		</clipPath>
	</g>
	<g>
		<defs>
			<path id="SVGID_13_" d="M383.2,2244.6c-40.2,0-82.2,0-125.8,0c0-101.4,0-200.8,0-302.7c42.8,0,84.7,0,128.6,0
				c0-123.6,0-244.9,0-368.9c-41.7,0-83.5,0-127.7,0c0-101.8,0-201.1,0-302.8c41.5,0,83.3,0,127.5,0c0-123.6,0-244.7,0-368.4
				c-42.4,0-84.2,0-128,0c0-101.9,0-201.2,0-302.8c43,0,84.9,0,127.5,0c2.9-38.2,2.8-74.6,8.8-110c16.5-97.9,92.5-177.1,185.9-196.3
				c15.6-3.2,32.1-3.5,48.2-3.5c512.8-0.2,1025.6,1.4,1538.3-1.3c122.2-0.6,203,71.1,233.3,158.2c10.7,30.8,13,64.4,17.6,96.9
				c2,13.9,0.3,28.4,0.3,45.4c49.5,0,96.7,0,145.2,0c0,214.1,0,425.2,0,639.2c-47.8,0-95,0-143.6,0c0,24.3,0,45.9,0,69.7
				c47.8,0,94.3,0,142.9,0c0,348.5,0,694.7,0,1043.5c-48.4,0-96.5,0-138.7,0c-18.7,41.2-31.3,80.4-53,114.6
				c-45.3,71.3-113.6,106.9-203.8,106.8c-442.6-0.7-885.2-0.3-1327.8-0.3c-64.8,0-129.5,0-194.3,0
				c-126.8-0.1-215.8-63.4-245.2-180.3C388.4,2338.5,388.5,2293,383.2,2244.6z M2472.3,2255.5c0-292.6,0-581.5,0-873.6
				c-49,0-96.1,0-143.6,0c0-81.2,0-159.4,0-240c49.2,0,96.5,0,143.6,0c0-156.9,0-311.4,0-469c-49.1,0-96.2,0-145.6,0
				c0-45.4,2.8-87.7-0.9-129.5c-2.8-31.3-9.4-64.1-23-92.6c-22.9-47.5-63-77.2-122.3-77.2c-518,0.1-1036.1,0.1-1554.1-0.1
				c-35.4,0-65,11.7-89.5,34.8c-41,38.6-58,85.9-57.9,140c0.3,584.6,0.2,1169.1,0.2,1753.6c0,9.3,0,18.7,0.9,27.9
				c8.6,87.9,71.5,147.2,156.8,147.2c510.8,0.1,1021.7,0,1532.5,0.2c41.1,0,75.3-13,103.3-41.3c35.3-35.6,52.8-77.9,54.1-126.3
				c0.4-17.4,0.1-34.8,0.1-54.3C2377.1,2255.5,2423.6,2255.5,2472.3,2255.5z"/>
		</defs>
		<defs>
			<path id="SVGID_14_" d="M2222.9,2270.7c-28.4,0-54.4,0.1-80.3,0c-90.8-0.3-181.7,0.6-272.6-1.1c-59-1.1-100.4-39.7-106.7-95.2
				c-1.3-11.7-1.6-23.6-1.6-35.5c-0.1-302.9-0.1-605.9-0.1-908.8c0-11,0-21.9,0-36.7c-11.1,0-20.6,0-30.1,0
				c-100.8,0-201.5,0.1-302.3,0c-75.3-0.1-120.8-42.7-121-113.8c-0.3-124.4-0.4-248.8,0-373.1c0.3-88.4,45.9-130.1,139.4-130
				c246.5,0.2,493,0.1,739.5,0.1c11.5,0,22.9,0,35.7,0C2222.9,1142.1,2222.9,1704.5,2222.9,2270.7z M2132.2,2185.9
				c0-509.3,0-1015.5,0-1522.9c-8.8-0.6-15.8-1.5-22.8-1.5c-222.2-0.1-444.4-0.1-666.5,0c-36.4,0-44.5,8.3-44.5,44.8
				c-0.2,121.9-0.1,243.6,0,365.5c0,32.3,4.4,36.4,39,36.4c127.7,0.1,255.5,0,383.2,0c9.6,0,19.2,0,31.2,0c0,13.3,0,23.2,0,33.3
				c0,248.7,0,497.5,0,746.2c0,87.2,0.2,174.3-0.2,261.5c-0.1,21.2,4.5,37,31.9,36.9C1965.3,2185.7,2047,2185.9,2132.2,2185.9z"/>
		</defs>
		<defs>
			<path id="SVGID_15_" d="M1123.9,1715.6c151.9,0,303.8-0.1,455.7,0.1c31.4,0,49.5,12.8,52.4,36.2c3,23.7-12.6,43.8-37.7,47.4
				c-9.7,1.4-19.7,0.9-29.6,0.9c-295.7,0-591.4,0-887.1,0c-6.2,0-12.6,0.2-18.8-0.1c-30.2-1.4-49.6-18.4-49.1-43.2
				c0.4-25.1,19.4-41.2,50.5-41.3C814.6,1715.6,969.2,1715.6,1123.9,1715.6z"/>
		</defs>
		<clipPath id="SVGID_16_">
			<use xlink:href="#SVGID_13_"  overflow="visible"/>
		</clipPath>
		<clipPath id="SVGID_17_" clip-path="url(#SVGID_16_)">
			<use xlink:href="#SVGID_14_"  overflow="visible"/>
		</clipPath>
		<clipPath id="SVGID_18_" clip-path="url(#SVGID_17_)">
			<use xlink:href="#SVGID_15_"  overflow="visible"/>
		</clipPath>
	</g>
	<g>
		<defs>
			<path id="SVGID_19_" d="M383.2,2244.6c-40.2,0-82.2,0-125.8,0c0-101.4,0-200.8,0-302.7c42.8,0,84.7,0,128.6,0
				c0-123.6,0-244.9,0-368.9c-41.7,0-83.5,0-127.7,0c0-101.8,0-201.1,0-302.8c41.5,0,83.3,0,127.5,0c0-123.6,0-244.7,0-368.4
				c-42.4,0-84.2,0-128,0c0-101.9,0-201.2,0-302.8c43,0,84.9,0,127.5,0c2.9-38.2,2.8-74.6,8.8-110c16.5-97.9,92.5-177.1,185.9-196.3
				c15.6-3.2,32.1-3.5,48.2-3.5c512.8-0.2,1025.6,1.4,1538.3-1.3c122.2-0.6,203,71.1,233.3,158.2c10.7,30.8,13,64.4,17.6,96.9
				c2,13.9,0.3,28.4,0.3,45.4c49.5,0,96.7,0,145.2,0c0,214.1,0,425.2,0,639.2c-47.8,0-95,0-143.6,0c0,24.3,0,45.9,0,69.7
				c47.8,0,94.3,0,142.9,0c0,348.5,0,694.7,0,1043.5c-48.4,0-96.5,0-138.7,0c-18.7,41.2-31.3,80.4-53,114.6
				c-45.3,71.3-113.6,106.9-203.8,106.8c-442.6-0.7-885.2-0.3-1327.8-0.3c-64.8,0-129.5,0-194.3,0
				c-126.8-0.1-215.8-63.4-245.2-180.3C388.4,2338.5,388.5,2293,383.2,2244.6z M2472.3,2255.5c0-292.6,0-581.5,0-873.6
				c-49,0-96.1,0-143.6,0c0-81.2,0-159.4,0-240c49.2,0,96.5,0,143.6,0c0-156.9,0-311.4,0-469c-49.1,0-96.2,0-145.6,0
				c0-45.4,2.8-87.7-0.9-129.5c-2.8-31.3-9.4-64.1-23-92.6c-22.9-47.5-63-77.2-122.3-77.2c-518,0.1-1036.1,0.1-1554.1-0.1
				c-35.4,0-65,11.7-89.5,34.8c-41,38.6-58,85.9-57.9,140c0.3,584.6,0.2,1169.1,0.2,1753.6c0,9.3,0,18.7,0.9,27.9
				c8.6,87.9,71.5,147.2,156.8,147.2c510.8,0.1,1021.7,0,1532.5,0.2c41.1,0,75.3-13,103.3-41.3c35.3-35.6,52.8-77.9,54.1-126.3
				c0.4-17.4,0.1-34.8,0.1-54.3C2377.1,2255.5,2423.6,2255.5,2472.3,2255.5z"/>
		</defs>
		<defs>
			<path id="SVGID_20_" d="M2222.9,2270.7c-28.4,0-54.4,0.1-80.3,0c-90.8-0.3-181.7,0.6-272.6-1.1c-59-1.1-100.4-39.7-106.7-95.2
				c-1.3-11.7-1.6-23.6-1.6-35.5c-0.1-302.9-0.1-605.9-0.1-908.8c0-11,0-21.9,0-36.7c-11.1,0-20.6,0-30.1,0
				c-100.8,0-201.5,0.1-302.3,0c-75.3-0.1-120.8-42.7-121-113.8c-0.3-124.4-0.4-248.8,0-373.1c0.3-88.4,45.9-130.1,139.4-130
				c246.5,0.2,493,0.1,739.5,0.1c11.5,0,22.9,0,35.7,0C2222.9,1142.1,2222.9,1704.5,2222.9,2270.7z M2132.2,2185.9
				c0-509.3,0-1015.5,0-1522.9c-8.8-0.6-15.8-1.5-22.8-1.5c-222.2-0.1-444.4-0.1-666.5,0c-36.4,0-44.5,8.3-44.5,44.8
				c-0.2,121.9-0.1,243.6,0,365.5c0,32.3,4.4,36.4,39,36.4c127.7,0.1,255.5,0,383.2,0c9.6,0,19.2,0,31.2,0c0,13.3,0,23.2,0,33.3
				c0,248.7,0,497.5,0,746.2c0,87.2,0.2,174.3-0.2,261.5c-0.1,21.2,4.5,37,31.9,36.9C1965.3,2185.7,2047,2185.9,2132.2,2185.9z"/>
		</defs>
		<defs>
			<path id="SVGID_21_" d="M1123.9,1715.6c151.9,0,303.8-0.1,455.7,0.1c31.4,0,49.5,12.8,52.4,36.2c3,23.7-12.6,43.8-37.7,47.4
				c-9.7,1.4-19.7,0.9-29.6,0.9c-295.7,0-591.4,0-887.1,0c-6.2,0-12.6,0.2-18.8-0.1c-30.2-1.4-49.6-18.4-49.1-43.2
				c0.4-25.1,19.4-41.2,50.5-41.3C814.6,1715.6,969.2,1715.6,1123.9,1715.6z"/>
		</defs>
		<defs>
			<path id="SVGID_22_" d="M1121.6,2113.3c-151.9,0-303.8-0.1-455.7,0.2c-20.9,0-39.6-2.6-50.6-21.9c-14.6-25.3-0.4-55.2,29.6-61.3
				c9.5-1.9,19.6-1.5,29.4-1.5c297.5-0.1,595-0.1,892.5-0.1c5.4,0,10.8-0.2,16.2,0.1c31.6,1.4,49.1,16.6,49.1,42.6
				c-0.1,25.6-18.5,41.7-49.5,41.9c-73.7,0.3-147.4,0.1-221.1,0.1C1281.6,2113.3,1201.6,2113.3,1121.6,2113.3z"/>
		</defs>
		<clipPath id="SVGID_23_">
			<use xlink:href="#SVGID_19_"  overflow="visible"/>
		</clipPath>
		<clipPath id="SVGID_24_" clip-path="url(#SVGID_23_)">
			<use xlink:href="#SVGID_20_"  overflow="visible"/>
		</clipPath>
		<clipPath id="SVGID_25_" clip-path="url(#SVGID_24_)">
			<use xlink:href="#SVGID_21_"  overflow="visible"/>
		</clipPath>
		<clipPath id="SVGID_26_" clip-path="url(#SVGID_25_)">
			<use xlink:href="#SVGID_22_"  overflow="visible"/>
		</clipPath>
	</g>
	<g>
		<defs>
			<path id="SVGID_27_" d="M383.2,2244.6c-40.2,0-82.2,0-125.8,0c0-101.4,0-200.8,0-302.7c42.8,0,84.7,0,128.6,0
				c0-123.6,0-244.9,0-368.9c-41.7,0-83.5,0-127.7,0c0-101.8,0-201.1,0-302.8c41.5,0,83.3,0,127.5,0c0-123.6,0-244.7,0-368.4
				c-42.4,0-84.2,0-128,0c0-101.9,0-201.2,0-302.8c43,0,84.9,0,127.5,0c2.9-38.2,2.8-74.6,8.8-110c16.5-97.9,92.5-177.1,185.9-196.3
				c15.6-3.2,32.1-3.5,48.2-3.5c512.8-0.2,1025.6,1.4,1538.3-1.3c122.2-0.6,203,71.1,233.3,158.2c10.7,30.8,13,64.4,17.6,96.9
				c2,13.9,0.3,28.4,0.3,45.4c49.5,0,96.7,0,145.2,0c0,214.1,0,425.2,0,639.2c-47.8,0-95,0-143.6,0c0,24.3,0,45.9,0,69.7
				c47.8,0,94.3,0,142.9,0c0,348.5,0,694.7,0,1043.5c-48.4,0-96.5,0-138.7,0c-18.7,41.2-31.3,80.4-53,114.6
				c-45.3,71.3-113.6,106.9-203.8,106.8c-442.6-0.7-885.2-0.3-1327.8-0.3c-64.8,0-129.5,0-194.3,0
				c-126.8-0.1-215.8-63.4-245.2-180.3C388.4,2338.5,388.5,2293,383.2,2244.6z M2472.3,2255.5c0-292.6,0-581.5,0-873.6
				c-49,0-96.1,0-143.6,0c0-81.2,0-159.4,0-240c49.2,0,96.5,0,143.6,0c0-156.9,0-311.4,0-469c-49.1,0-96.2,0-145.6,0
				c0-45.4,2.8-87.7-0.9-129.5c-2.8-31.3-9.4-64.1-23-92.6c-22.9-47.5-63-77.2-122.3-77.2c-518,0.1-1036.1,0.1-1554.1-0.1
				c-35.4,0-65,11.7-89.5,34.8c-41,38.6-58,85.9-57.9,140c0.3,584.6,0.2,1169.1,0.2,1753.6c0,9.3,0,18.7,0.9,27.9
				c8.6,87.9,71.5,147.2,156.8,147.2c510.8,0.1,1021.7,0,1532.5,0.2c41.1,0,75.3-13,103.3-41.3c35.3-35.6,52.8-77.9,54.1-126.3
				c0.4-17.4,0.1-34.8,0.1-54.3C2377.1,2255.5,2423.6,2255.5,2472.3,2255.5z"/>
		</defs>
		<defs>
			<path id="SVGID_28_" d="M2222.9,2270.7c-28.4,0-54.4,0.1-80.3,0c-90.8-0.3-181.7,0.6-272.6-1.1c-59-1.1-100.4-39.7-106.7-95.2
				c-1.3-11.7-1.6-23.6-1.6-35.5c-0.1-302.9-0.1-605.9-0.1-908.8c0-11,0-21.9,0-36.7c-11.1,0-20.6,0-30.1,0
				c-100.8,0-201.5,0.1-302.3,0c-75.3-0.1-120.8-42.7-121-113.8c-0.3-124.4-0.4-248.8,0-373.1c0.3-88.4,45.9-130.1,139.4-130
				c246.5,0.2,493,0.1,739.5,0.1c11.5,0,22.9,0,35.7,0C2222.9,1142.1,2222.9,1704.5,2222.9,2270.7z M2132.2,2185.9
				c0-509.3,0-1015.5,0-1522.9c-8.8-0.6-15.8-1.5-22.8-1.5c-222.2-0.1-444.4-0.1-666.5,0c-36.4,0-44.5,8.3-44.5,44.8
				c-0.2,121.9-0.1,243.6,0,365.5c0,32.3,4.4,36.4,39,36.4c127.7,0.1,255.5,0,383.2,0c9.6,0,19.2,0,31.2,0c0,13.3,0,23.2,0,33.3
				c0,248.7,0,497.5,0,746.2c0,87.2,0.2,174.3-0.2,261.5c-0.1,21.2,4.5,37,31.9,36.9C1965.3,2185.7,2047,2185.9,2132.2,2185.9z"/>
		</defs>
		<defs>
			<path id="SVGID_29_" d="M1123.9,1715.6c151.9,0,303.8-0.1,455.7,0.1c31.4,0,49.5,12.8,52.4,36.2c3,23.7-12.6,43.8-37.7,47.4
				c-9.7,1.4-19.7,0.9-29.6,0.9c-295.7,0-591.4,0-887.1,0c-6.2,0-12.6,0.2-18.8-0.1c-30.2-1.4-49.6-18.4-49.1-43.2
				c0.4-25.1,19.4-41.2,50.5-41.3C814.6,1715.6,969.2,1715.6,1123.9,1715.6z"/>
		</defs>
		<defs>
			<path id="SVGID_30_" d="M1121.6,2113.3c-151.9,0-303.8-0.1-455.7,0.2c-20.9,0-39.6-2.6-50.6-21.9c-14.6-25.3-0.4-55.2,29.6-61.3
				c9.5-1.9,19.6-1.5,29.4-1.5c297.5-0.1,595-0.1,892.5-0.1c5.4,0,10.8-0.2,16.2,0.1c31.6,1.4,49.1,16.6,49.1,42.6
				c-0.1,25.6-18.5,41.7-49.5,41.9c-73.7,0.3-147.4,0.1-221.1,0.1C1281.6,2113.3,1201.6,2113.3,1121.6,2113.3z"/>
		</defs>
		<defs>
			<path id="SVGID_31_" d="M1119.1,2183.6c153.8,0,307.4-0.1,461.2,0.1c30.9,0,49,13.3,51.5,37.1c2.5,22.5-9.7,40-33,45.6
				c-9.4,2.3-19.5,2.6-29.3,2.6c-298.4,0.2-596.9,0.1-895.3,0.1c-8,0-16.3,0.3-24.2-0.9c-25.4-3.9-42.6-23.9-40.3-46.1
				c2.2-22,20.3-37.7,45.7-38.3c29.6-0.6,59.3-0.2,88.9-0.2C869.3,2183.6,994.2,2183.6,1119.1,2183.6z"/>
		</defs>
		<clipPath id="SVGID_32_">
			<use xlink:href="#SVGID_27_"  overflow="visible"/>
		</clipPath>
		<clipPath id="SVGID_33_" clip-path="url(#SVGID_32_)">
			<use xlink:href="#SVGID_28_"  overflow="visible"/>
		</clipPath>
		<clipPath id="SVGID_34_" clip-path="url(#SVGID_33_)">
			<use xlink:href="#SVGID_29_"  overflow="visible"/>
		</clipPath>
		<clipPath id="SVGID_35_" clip-path="url(#SVGID_34_)">
			<use xlink:href="#SVGID_30_"  overflow="visible"/>
		</clipPath>
		<clipPath id="SVGID_36_" clip-path="url(#SVGID_35_)">
			<use xlink:href="#SVGID_31_"  overflow="visible"/>
		</clipPath>
	</g>
	<g>
		<defs>
			<path id="SVGID_37_" d="M383.2,2244.6c-40.2,0-82.2,0-125.8,0c0-101.4,0-200.8,0-302.7c42.8,0,84.7,0,128.6,0
				c0-123.6,0-244.9,0-368.9c-41.7,0-83.5,0-127.7,0c0-101.8,0-201.1,0-302.8c41.5,0,83.3,0,127.5,0c0-123.6,0-244.7,0-368.4
				c-42.4,0-84.2,0-128,0c0-101.9,0-201.2,0-302.8c43,0,84.9,0,127.5,0c2.9-38.2,2.8-74.6,8.8-110c16.5-97.9,92.5-177.1,185.9-196.3
				c15.6-3.2,32.1-3.5,48.2-3.5c512.8-0.2,1025.6,1.4,1538.3-1.3c122.2-0.6,203,71.1,233.3,158.2c10.7,30.8,13,64.4,17.6,96.9
				c2,13.9,0.3,28.4,0.3,45.4c49.5,0,96.7,0,145.2,0c0,214.1,0,425.2,0,639.2c-47.8,0-95,0-143.6,0c0,24.3,0,45.9,0,69.7
				c47.8,0,94.3,0,142.9,0c0,348.5,0,694.7,0,1043.5c-48.4,0-96.5,0-138.7,0c-18.7,41.2-31.3,80.4-53,114.6
				c-45.3,71.3-113.6,106.9-203.8,106.8c-442.6-0.7-885.2-0.3-1327.8-0.3c-64.8,0-129.5,0-194.3,0
				c-126.8-0.1-215.8-63.4-245.2-180.3C388.4,2338.5,388.5,2293,383.2,2244.6z M2472.3,2255.5c0-292.6,0-581.5,0-873.6
				c-49,0-96.1,0-143.6,0c0-81.2,0-159.4,0-240c49.2,0,96.5,0,143.6,0c0-156.9,0-311.4,0-469c-49.1,0-96.2,0-145.6,0
				c0-45.4,2.8-87.7-0.9-129.5c-2.8-31.3-9.4-64.1-23-92.6c-22.9-47.5-63-77.2-122.3-77.2c-518,0.1-1036.1,0.1-1554.1-0.1
				c-35.4,0-65,11.7-89.5,34.8c-41,38.6-58,85.9-57.9,140c0.3,584.6,0.2,1169.1,0.2,1753.6c0,9.3,0,18.7,0.9,27.9
				c8.6,87.9,71.5,147.2,156.8,147.2c510.8,0.1,1021.7,0,1532.5,0.2c41.1,0,75.3-13,103.3-41.3c35.3-35.6,52.8-77.9,54.1-126.3
				c0.4-17.4,0.1-34.8,0.1-54.3C2377.1,2255.5,2423.6,2255.5,2472.3,2255.5z"/>
		</defs>
		<defs>
			<path id="SVGID_38_" d="M2222.9,2270.7c-28.4,0-54.4,0.1-80.3,0c-90.8-0.3-181.7,0.6-272.6-1.1c-59-1.1-100.4-39.7-106.7-95.2
				c-1.3-11.7-1.6-23.6-1.6-35.5c-0.1-302.9-0.1-605.9-0.1-908.8c0-11,0-21.9,0-36.7c-11.1,0-20.6,0-30.1,0
				c-100.8,0-201.5,0.1-302.3,0c-75.3-0.1-120.8-42.7-121-113.8c-0.3-124.4-0.4-248.8,0-373.1c0.3-88.4,45.9-130.1,139.4-130
				c246.5,0.2,493,0.1,739.5,0.1c11.5,0,22.9,0,35.7,0C2222.9,1142.1,2222.9,1704.5,2222.9,2270.7z M2132.2,2185.9
				c0-509.3,0-1015.5,0-1522.9c-8.8-0.6-15.8-1.5-22.8-1.5c-222.2-0.1-444.4-0.1-666.5,0c-36.4,0-44.5,8.3-44.5,44.8
				c-0.2,121.9-0.1,243.6,0,365.5c0,32.3,4.4,36.4,39,36.4c127.7,0.1,255.5,0,383.2,0c9.6,0,19.2,0,31.2,0c0,13.3,0,23.2,0,33.3
				c0,248.7,0,497.5,0,746.2c0,87.2,0.2,174.3-0.2,261.5c-0.1,21.2,4.5,37,31.9,36.9C1965.3,2185.7,2047,2185.9,2132.2,2185.9z"/>
		</defs>
		<defs>
			<path id="SVGID_39_" d="M1123.9,1715.6c151.9,0,303.8-0.1,455.7,0.1c31.4,0,49.5,12.8,52.4,36.2c3,23.7-12.6,43.8-37.7,47.4
				c-9.7,1.4-19.7,0.9-29.6,0.9c-295.7,0-591.4,0-887.1,0c-6.2,0-12.6,0.2-18.8-0.1c-30.2-1.4-49.6-18.4-49.1-43.2
				c0.4-25.1,19.4-41.2,50.5-41.3C814.6,1715.6,969.2,1715.6,1123.9,1715.6z"/>
		</defs>
		<defs>
			<path id="SVGID_40_" d="M1121.6,2113.3c-151.9,0-303.8-0.1-455.7,0.2c-20.9,0-39.6-2.6-50.6-21.9c-14.6-25.3-0.4-55.2,29.6-61.3
				c9.5-1.9,19.6-1.5,29.4-1.5c297.5-0.1,595-0.1,892.5-0.1c5.4,0,10.8-0.2,16.2,0.1c31.6,1.4,49.1,16.6,49.1,42.6
				c-0.1,25.6-18.5,41.7-49.5,41.9c-73.7,0.3-147.4,0.1-221.1,0.1C1281.6,2113.3,1201.6,2113.3,1121.6,2113.3z"/>
		</defs>
		<defs>
			<path id="SVGID_41_" d="M1119.1,2183.6c153.8,0,307.4-0.1,461.2,0.1c30.9,0,49,13.3,51.5,37.1c2.5,22.5-9.7,40-33,45.6
				c-9.4,2.3-19.5,2.6-29.3,2.6c-298.4,0.2-596.9,0.1-895.3,0.1c-8,0-16.3,0.3-24.2-0.9c-25.4-3.9-42.6-23.9-40.3-46.1
				c2.2-22,20.3-37.7,45.7-38.3c29.6-0.6,59.3-0.2,88.9-0.2C869.3,2183.6,994.2,2183.6,1119.1,2183.6z"/>
		</defs>
		<defs>
			<path id="SVGID_42_" d="M1124.4,1869.6c151.9,0,303.8-0.1,455.7,0.1c33.1,0,52,15.7,52,42.2c0.1,22.7-15.9,39.9-40.8,42.7
				c-8.9,1-18,0.4-27,0.4c-295.7,0-591.5,0-887.1,0c-7.2,0-14.4,0.3-21.6-0.2c-27.1-1.9-46.7-20.7-46.1-43.8
				c0.6-23.4,20.4-41,48.4-41.3c66.5-0.5,133-0.2,199.6-0.2C946.4,1869.6,1035.3,1869.6,1124.4,1869.6z"/>
		</defs>
		<clipPath id="SVGID_43_">
			<use xlink:href="#SVGID_37_"  overflow="visible"/>
		</clipPath>
		<clipPath id="SVGID_44_" clip-path="url(#SVGID_43_)">
			<use xlink:href="#SVGID_38_"  overflow="visible"/>
		</clipPath>
		<clipPath id="SVGID_45_" clip-path="url(#SVGID_44_)">
			<use xlink:href="#SVGID_39_"  overflow="visible"/>
		</clipPath>
		<clipPath id="SVGID_46_" clip-path="url(#SVGID_45_)">
			<use xlink:href="#SVGID_40_"  overflow="visible"/>
		</clipPath>
		<clipPath id="SVGID_47_" clip-path="url(#SVGID_46_)">
			<use xlink:href="#SVGID_41_"  overflow="visible"/>
		</clipPath>
		<clipPath id="SVGID_48_" clip-path="url(#SVGID_47_)">
			<use xlink:href="#SVGID_42_"  overflow="visible"/>
		</clipPath>
		<rect x="201.4" y="275.9" clip-path="url(#SVGID_48_)" fill="none" width="2430.1" height="2285.8"/>
	</g>
</g>
</svg>
