<?xml version="1.0" encoding="utf-8"?>
<!-- Generator: Adobe Illustrator 18.0.0, SVG Export Plug-In . SVG Version: 6.00 Build 0)  -->
<!DOCTYPE svg PUBLIC "-//W3C//DTD SVG 1.0//EN" "http://www.w3.org/TR/2001/REC-SVG-20010904/DTD/svg10.dtd">
<svg version="1.0" id="Layer_1" xmlns="http://www.w3.org/2000/svg" xmlns:xlink="http://www.w3.org/1999/xlink" x="0px" y="0px"
	 viewBox="415.1 20.5 747 760.5" enable-background="new 415.1 20.5 747 760.5" xml:space="preserve">
<g>
	<g>
		<g>
			<g>
				<path fill="#3C98CF" d="M741.5,504.1l-19.8,58.3H707l-19.6-58.3h13.9l11.9,40.6c0.6,2.2,1,4.2,1.2,5.8h0.3
					c0.2-1.8,0.6-3.8,1.3-6l11.9-40.4L741.5,504.1L741.5,504.1z"/>
				<path fill="#3C98CF" d="M777.2,545.8c0,11.6-5.3,17.3-15.9,17.3c-10.3,0-15.5-5.6-15.5-16.9v-22.2h8.6v22.3
					c0,6.2,2.4,9.3,7.2,9.3c4.7,0,7.1-3,7.1-9.1v-22.6h8.6L777.2,545.8L777.2,545.8z"/>
				<path fill="#3C98CF" d="M808,562.4h-22.6v-38.5h8.6v31.4h14V562.4L808,562.4L808,562.4z"/>
				<path fill="#3C98CF" d="M839.8,531H829v31.4h-8.6V531h-10.8v-7.1h30.1L839.8,531L839.8,531L839.8,531z"/>
				<path fill="#3C98CF" d="M878.3,562.4H869l-2.7-8.6h-13.5l-2.6,8.6h-9.2l13.8-38.5h10.1L878.3,562.4z M864.3,547.2l-4.1-12.9
					c-0.3-1-0.5-2.2-0.6-3.4h-0.2c-0.1,1.1-0.3,2.3-0.6,3.3l-4.2,13L864.3,547.2L864.3,547.2L864.3,547.2z"/>
				<path fill="#3C98CF" d="M914.9,562.4h-9.8l-5.9-9.9c-0.5-0.7-0.8-1.4-1.3-2c-0.5-0.6-0.8-1.1-1.3-1.5c-0.5-0.5-0.8-0.7-1.3-1
					c-0.5-0.3-0.9-0.4-1.4-0.4h-2.4v14.8h-8.5v-38.5h13.6c9.2,0,13.8,3.5,13.8,10.4c0,1.4-0.2,2.5-0.6,3.7c-0.5,1.1-1,2.2-1.7,3.1
					c-0.7,0.9-1.6,1.7-2.7,2.4c-1.1,0.6-2.3,1.2-3.5,1.5v0.1c0.5,0.2,1.1,0.5,1.6,0.9c0.5,0.4,1,0.9,1.5,1.4c0.5,0.5,1,1.1,1.4,1.7
					c0.5,0.6,0.8,1.2,1.3,1.8L914.9,562.4z M891.5,530.5v10.7h3.7c1.8,0,3.3-0.5,4.4-1.6c1.2-1.1,1.7-2.4,1.7-4.1c0-3.3-2-5-6-5
					H891.5L891.5,530.5L891.5,530.5z"/>
				<path fill="#3C98CF" d="M954.6,562.4h-9.3l-2.7-8.6h-13.5l-2.6,8.6h-9.2l13.8-38.5h10.1L954.6,562.4z M940.6,547.2l-4.1-12.9
					c-0.3-1-0.5-2.2-0.6-3.4h-0.2c-0.1,1.1-0.3,2.3-0.6,3.3l-4.2,13L940.6,547.2L940.6,547.2L940.6,547.2z"/>
			</g>
		</g>
	</g>
	<g>
		<path fill="#3C98CF" stroke="#3C98CF" stroke-miterlimit="10" d="M1089.6,545.8c-8.2-0.3-16.4-0.1-24.6-0.1
			c-22.5,0-22.8,0-22.5-22.5c0.1-8.9-3.9-20.2,2-25.9c5.4-5.3,16.3-0.8,23.4-1.5c7.9,0,14.3,0.1,20.8,0c10.2-0.3,15.5-5,15.5-13.9
			s-5.2-13.6-15.6-13.7c-12.7-0.2-25.3-0.3-37.9,0.1c-5.9,0.2-8.7-1.2-8.4-8c0.5-12.8,0.5-25.6,0-38.4c-0.2-6.2,2.3-7.6,7.8-7.4
			c11.9,0.3,23.9,0.1,35.8,0.1c12.1,0,17.7-4.3,18.2-13.4c0.5-9.4-5.7-14.8-17.9-15.1c-11.9-0.3-23.9-0.4-35.8,0
			c-6.3,0.3-8.3-2.1-8.1-8.3c0.4-11.8,0.5-23.5,0-35.3c-0.3-6.6,1.5-9.1,8.5-8.9c12.6,0.5,25.3,0.3,37.9,0.1
			c10.2-0.2,15.5-5.1,15.5-13.9c0-8.9-5.2-13.5-15.6-13.6c-12.6-0.2-25.3-0.3-37.9,0.1c-6,0.2-8.7-1.3-8.4-8.1
			c0.5-12.1,0.4-24.3,0-36.3c-0.2-5.9,1.8-7.9,7.6-7.8c12.9,0.4,26,0.4,38.9,0c9.7-0.3,15.5-6.2,15.3-14.5
			c-0.2-8.7-5.6-13.7-15.7-13.9c-9.6-0.2-19.1,0-28.7,0c-17.2,0-17.1,0-17.5-17.2c-0.6-27-12.6-46.9-36.8-58.8
			c-10.1-5-21.1-6-32-5.1c-7.9,0.6-10-2.4-9.6-10c0.6-12.1,0.4-24.3,0.1-36.3c-0.3-9.9-5.8-15.9-13.9-16
			c-8.4-0.1-14.1,6.3-14.2,16.7c-0.2,12.5-0.3,24.9,0.1,37.4c0.2,6.2-1.5,8.6-8,8.3c-12.6-0.5-25.3-0.5-37.9,0
			c-6.6,0.3-8.1-2.4-7.9-8.5c0.4-11.8,0.2-23.5,0.1-35.3c-0.1-12-5.4-18.8-14.5-18.6c-8.6,0.3-13.7,6.9-13.8,18.3
			c-0.1,12.1-0.3,24.3,0.1,36.4c0.2,6-1.9,7.9-7.7,7.7c-9.9-0.4-19.8-0.5-29.7,0c-6.6,0.4-8.1-2.4-8-8.5c0.4-12.4,0.2-24.9,0.1-37.4
			c-0.1-10.4-4.8-16.2-13-16.5c-8.6-0.4-13.9,5.8-14.1,16.5c-0.2,12.5-0.3,24.9,0.1,37.4c0.2,6.1-1.4,8.7-8,8.5
			c-12.9-0.5-26-0.5-38.9,0c-7.2,0.3-8.5-2.7-8.3-9.1c0.4-12.8,0.3-25.6,0-38.4c-0.2-9.2-5.7-14.9-13.7-14.8
			c-8.1,0-13.3,5.5-13.5,14.9c-0.2,13.1-0.3,26.3,0,39.5c0.1,5.6-1.3,8.1-7.4,8c-13.3-0.4-26.6-0.5-39.9,0c-6.8,0.3-8-2.7-7.8-8.6
			c0.4-12.1,0.2-24.3,0.1-36.3c-0.1-10.6-5.2-17.1-13.4-17.5c-8.8-0.4-14.6,6.2-14.8,17.3c-0.2,11-0.7,22.2,0.2,33.2
			c0.8,9.8-2.6,12.5-11.9,11.9c-22.3-1.5-40.7,6.2-54.9,24.3c-11.1,14.2-13,30.9-11.9,48.2c0.5,6.8-1.8,9.1-8.7,8.9
			c-11.9-0.5-23.9-0.3-35.8-0.1c-11,0.1-16.7,4.8-16.9,13.7c-0.4,9.1,6,14.7,17,14.9c11.9,0.2,23.9,0.3,35.8,0
			c5.9-0.2,8.8,1.2,8.6,8c-0.5,13.1-0.4,26.3,0,39.5c0.1,5.5-2,7.2-7.2,7.1c-12.6-0.3-25.3-0.2-37.9,0c-10.8,0.1-16.4,5.1-16.4,14.2
			c0,8.7,5.3,13.2,15.8,13.4c12.3,0.2,24.6,0.3,36.9-0.1c6.8-0.2,9.1,2.4,8.8,9.1c-0.5,9.3-0.5,18.7,0,28.1c0.4,6.9-2.2,9.1-8.9,8.9
			c-11.9-0.5-23.9-0.5-35.8,0c-11.4,0.4-17.3,6.1-16.8,15.2c0.5,8.9,6.1,13.2,17.3,13.2c12.3,0.1,24.6,0.2,36.8-0.1
			c5.2-0.1,7.4,1.4,7.2,7c-0.3,13.5-0.4,27,0,40.5c0.2,6.4-2.4,8.5-8.4,8.3c-12.3-0.3-24.6-0.2-36.9-0.1c-11,0.1-16.4,4.9-16.1,14.1
			c0.2,8.6,5.5,13.3,15.9,13.4c12.7,0.2,25.3,0.3,37.9-0.1c5.9-0.2,7.7,2,7.6,7.8c-0.3,13.5-0.4,27,0,40.6c0.2,6-2,7.8-7.7,7.6
			c-11.9-0.4-23.9-0.2-35.8-0.1c-12.1,0.1-17.7,4.4-17.9,13.6c-0.2,9.5,5.3,13.9,17.3,14c9.9,0.1,19.8,0,29.7,0
			c14.2,0,14.4,0,14.3,14.6c-0.3,27.9,12,47.6,36.8,59.5c11.5,5.6,24,5.3,36.2,4.5c7.9-0.5,10,2.4,9.6,10
			c-0.6,11.8-0.2,23.5-0.2,35.3c0.1,11.5,5.3,18,13.9,17.8c8.9-0.2,14-6.6,14.2-18c0.2-12.1,0.5-24.3-0.1-36.3
			c-0.3-7.1,2.4-9,8.9-8.7c10.6,0.5,21.2,0.5,31.8,0c6.9-0.3,9,2.4,8.8,9.1c-0.4,12.1-0.2,24.3-0.1,36.4c0.1,11.5,5.3,18,13.9,17.7
			c8.3-0.2,13.2-6.5,13.3-17.4c0.1-12.9,0.2-25.6-0.1-38.5c-0.1-5.3,1.4-7.4,7-7.3c12.9,0.3,26,0.4,38.9,0c6.3-0.2,7.3,2.8,7.2,8.1
			c-0.3,12.8-0.2,25.6,0,38.5c0.1,10.6,5.5,16.8,14,16.5c8.1-0.3,13-6.3,13.1-16.5c0.1-12.8,0.4-25.6-0.1-38.4
			c-0.2-6.4,2-8.4,8.2-8.2c11.9,0.5,23.9,0.5,35.8,0c7-0.3,8.9,2.6,8.7,9.1c-0.4,12.4-0.2,24.9-0.1,37.4c0.1,10.6,5.5,16.9,14,16.7
			c8.1-0.3,13-6.3,13.1-16.5c0.1-13.2,0.2-26.3-0.1-39.5c-0.1-5.3,1.7-7.3,7.1-7.2c12.3,0.3,24.6,0.4,36.8,0c6.1-0.2,7.6,2.3,7.4,8
			c-0.3,12.4-0.2,24.9-0.1,37.4c0.1,11.4,5.4,18,14,17.7c9-0.3,13.9-6.4,14.1-18c0.2-10.4,0-20.8,0-31.1c0.1-15.7-1.3-14,13.9-13.8
			c26.5,0.5,45.9-11,58.3-34.6c6.2-11.8,7-24.6,6-37.4c-0.5-8,2.3-10.1,9.8-9.8c12.6,0.6,25.3,0.5,37.9,0
			c8.4-0.5,14.4-4.9,14.1-14.4C1103.9,550.5,1098.3,546,1089.6,545.8z M975.2,628.3c-34.7-1.4-69.4,0.4-104.2-0.5
			c-20.4-0.5-40.9,0.5-61.4,0.5c-53.1,0.3-106.3,0.1-159.4,0.1c-16,0-32,0.3-48-0.1c-23.3-0.5-37.5-13.7-37.1-36.4
			c0.5-36.9-1.7-73.9,0.8-110.8c0.4-5.8-0.9-11.7-0.9-17.6c-0.1-69.1,0-138.1,0-207.3c0-15.8-0.2-31.7,0-47.6
			c0.4-20.7,11-32.4,31.1-35.8c15.3-2.6,30.6,0,45.9-0.4c47.3-1.1,94.9-1,142.2-0.2c28.2,0.5,56.6,0.6,84.7,0.3
			c34.4-0.5,68.8,1.4,103.2-0.5c7.2-0.4,14.6,0,21.1,2.9c14.4,6.3,20.9,18,20.9,33.8c-0.1,33.6,0,67.2,0,100.8v91.3
			c0,62.6-0.6,125.3,0.3,187.9C1014.9,617.6,996.2,629.1,975.2,628.3z"/>
		<path fill="#B0D5EA" d="M815.8,229.7c42,0,84,0.2,126.1-0.2c8.1-0.1,10.4,2.3,10.3,10.5c-0.3,79.7-0.2,159.3-0.2,238.9
			c0,4.9,1.7,10.5-6.9,10.7c-9.1,0.2-7.5-5.8-7.5-11.1c0-74.1-0.2-148.2,0.2-222.3c0.1-9.4-2.3-12.2-11.9-12.2
			c-78.6,0.4-157.2,0.3-235.7,0.1c-4.1,0-10,2.9-10.9-5.3c-0.8-7.6,2.4-9.2,9.3-9.2c40,0.3,79.9,0.1,119.9,0.1
			C811,229.7,813.5,229.7,815.8,229.7z"/>
		<path fill="#3C98CF" stroke="#3C98CF" stroke-miterlimit="10" d="M634.8,204.3c-18.3-0.3-32.1,13-32.7,31.3
			c-0.5,17.2,15.4,33.3,32.6,33.1c16.6-0.2,31.8-14.3,32.2-30.1C667.4,219.9,653.1,204.6,634.8,204.3z M635.1,250.7
			c-7.7,0.3-14.7-6.2-15-13.8c-0.5-8.7,5.9-15.3,14.4-15.3c7.9,0,14.2,6.9,14.5,15.8C649.1,244.9,643.4,250.4,635.1,250.7z"/>
	</g>
</g>
</svg>
