<svg width="40" height="40" viewBox="0 0 40 40" fill="none" xmlns="http://www.w3.org/2000/svg">
<rect x="0.5" y="0.5" width="39" height="39" rx="8.5" fill="#FFD700"/>
<path d="M16.25 17.5H17.5C17.8315 17.5 18.1495 17.3683 18.3839 17.1339C18.6183 16.8995 18.75 16.5815 18.75 16.25C18.75 15.9185 18.6183 15.6005 18.3839 15.3661C18.1495 15.1317 17.8315 15 17.5 15H16.25C15.9185 15 15.6005 15.1317 15.3661 15.3661C15.1317 15.6005 15 15.9185 15 16.25C15 16.5815 15.1317 16.8995 15.3661 17.1339C15.6005 17.3683 15.9185 17.5 16.25 17.5V17.5ZM16.25 20C15.9185 20 15.6005 20.1317 15.3661 20.3661C15.1317 20.6005 15 20.9185 15 21.25C15 21.5815 15.1317 21.8995 15.3661 22.1339C15.6005 22.3683 15.9185 22.5 16.25 22.5H23.75C24.0815 22.5 24.3995 22.3683 24.6339 22.1339C24.8683 21.8995 25 21.5815 25 21.25C25 20.9185 24.8683 20.6005 24.6339 20.3661C24.3995 20.1317 24.0815 20 23.75 20H16.25ZM30 16.175C29.987 16.0602 29.9618 15.947 29.925 15.8375V15.725C29.8649 15.5965 29.7847 15.4783 29.6875 15.375V15.375L22.1875 7.875C22.0842 7.77777 21.966 7.6976 21.8375 7.6375C21.8002 7.6322 21.7623 7.6322 21.725 7.6375C21.598 7.56468 21.4578 7.51793 21.3125 7.5H13.75C12.7554 7.5 11.8016 7.89509 11.0983 8.59835C10.3951 9.30161 10 10.2554 10 11.25V28.75C10 29.7446 10.3951 30.6984 11.0983 31.4017C11.8016 32.1049 12.7554 32.5 13.75 32.5H26.25C27.2446 32.5 28.1984 32.1049 28.9017 31.4017C29.6049 30.6984 30 29.7446 30 28.75V16.25C30 16.25 30 16.25 30 16.175ZM22.5 11.7625L25.7375 15H23.75C23.4185 15 23.1005 14.8683 22.8661 14.6339C22.6317 14.3995 22.5 14.0815 22.5 13.75V11.7625ZM27.5 28.75C27.5 29.0815 27.3683 29.3995 27.1339 29.6339C26.8995 29.8683 26.5815 30 26.25 30H13.75C13.4185 30 13.1005 29.8683 12.8661 29.6339C12.6317 29.3995 12.5 29.0815 12.5 28.75V11.25C12.5 10.9185 12.6317 10.6005 12.8661 10.3661C13.1005 10.1317 13.4185 10 13.75 10H20V13.75C20 14.7446 20.3951 15.6984 21.0983 16.4017C21.8016 17.1049 22.7554 17.5 23.75 17.5H27.5V28.75ZM23.75 25H16.25C15.9185 25 15.6005 25.1317 15.3661 25.3661C15.1317 25.6005 15 25.9185 15 26.25C15 26.5815 15.1317 26.8995 15.3661 27.1339C15.6005 27.3683 15.9185 27.5 16.25 27.5H23.75C24.0815 27.5 24.3995 27.3683 24.6339 27.1339C24.8683 26.8995 25 26.5815 25 26.25C25 25.9185 24.8683 25.6005 24.6339 25.3661C24.3995 25.1317 24.0815 25 23.75 25Z" fill="#1E1E1E"/>
<rect x="0.5" y="0.5" width="39" height="39" rx="8.5" stroke="#FFD700"/>
</svg>
