<svg width="42" height="42" viewBox="0 0 42 42" fill="none" xmlns="http://www.w3.org/2000/svg">
<rect x="0.5" y="0.5" width="41" height="41" rx="8.5" fill="#3C98CF"/>
<path d="M32.9997 19.84L14.333 9.06669C14.1303 8.94967 13.9004 8.88806 13.6664 8.88806C13.4323 8.88806 13.2024 8.94967 12.9997 9.06669C12.7962 9.18417 12.6274 9.35332 12.5103 9.55702C12.3933 9.76073 12.3321 9.99175 12.333 10.2267V31.7734C12.3321 32.0083 12.3933 32.2393 12.5103 32.443C12.6274 32.6467 12.7962 32.8159 12.9997 32.9334C13.2024 33.0504 13.4323 33.112 13.6664 33.112C13.9004 33.112 14.1303 33.0504 14.333 32.9334L32.9997 22.16C33.2049 22.0437 33.3756 21.8751 33.4943 21.6713C33.6131 21.4675 33.6756 21.2359 33.6756 21C33.6756 20.7642 33.6131 20.5325 33.4943 20.3287C33.3756 20.125 33.2049 19.9563 32.9997 19.84V19.84ZM14.9997 29.4667V12.5334L29.6664 21L14.9997 29.4667Z" fill="white"/>
<rect x="0.5" y="0.5" width="41" height="41" rx="8.5" stroke="#3C98CF"/>
</svg>
