<?xml version="1.0" encoding="utf-8"?>
<!-- Generator: Adobe Illustrator 25.0.0, SVG Export Plug-In . SVG Version: 6.00 Build 0)  -->
<svg version="1.1" id="Layer_1" xmlns="http://www.w3.org/2000/svg" xmlns:xlink="http://www.w3.org/1999/xlink" x="0px" y="0px"
	 viewBox="0 0 2834 2834" style="enable-background:new 0 0 2834 2834;" xml:space="preserve">
<style type="text/css">
	.st0{fill:#3898D2;}
	.st1{fill:#3999D2;}
	.st2{fill:#80BEE1;}
</style>
<g>
	<path class="st0" d="M1424.4,2667.1c-298.6,0-597.1,0-895.7,0c-57,0-99.6-31.9-113.8-84.2c-3.3-12.2-2.9-24.5-2.9-36.8
		c-0.1-132.1-0.3-264.3,0.3-396.4c0.1-15.4-3.9-21.1-19.7-19.7c-15.1,1.4-30.3,0.4-45.5,0.2c-64.8-0.7-111.2-44.4-116.1-109.4
		c-0.4-5.6-0.4-11.2-0.4-16.8c0-468.4,0-936.7-0.1-1405.1c0-45.7,14.5-83.7,54.6-109.1c17-10.8,35.5-16.4,55.8-16.4
		c17.4,0,34.9-1.1,52.3,0.1c14.6,1,19.5-3.3,19.2-18.6c-1-46.6-0.5-93.3-0.3-140c0.3-67.6,45.1-114.3,112.7-117.8
		c6.2-0.3,12.4-0.2,18.5-0.2c387.4,0,774.8-0.1,1162.2,0c203.5,0,407.1,1,610.6,0c71.5-0.4,125.8,53.2,122.1,122.6
		c-2.4,45.4-0.1,91.1-0.7,136.6c-0.2,12.9,3.1,17.9,16.9,17.4c23.5-0.8,47.6-2.2,70.7,1.4c53.9,8.4,92.1,54.8,93.5,110
		c0.3,10.7,0.1,21.4,0.1,32c0,464.4,0,928.8,0,1393.2c0,61.4-36.6,109-93.8,118.2c-23.1,3.7-47.1,2.3-70.7,1.4
		c-13.8-0.5-16.7,4.2-16.7,17.2c0.4,135.5,0.4,271,0.2,406.5c-0.1,56-35.4,100.1-89,111.4c-10.9,2.3-22.3,2-33.5,2.1
		C2018.1,2667.2,1721.3,2667.1,1424.4,2667.1z M1425.8,551.7c-354.8,0-709.5,0-1064.3,0c-41.7,0-50.5,8.8-50.5,50.2
		c0,466.6,0,933.3,0,1399.9c0,6.2,0.1,12.4,0.4,18.5c0.8,15.4,9.1,24.6,23.4,29.4c8.3,2.8,16.7,2.2,25.1,2.2
		c710.1,0,1420.2,0,2130.2,0c4.5,0,9,0.2,13.5-0.1c22.6-1.6,34.4-14.3,34.5-37.1c0.1-33.7,0.2-67.5,0-101.2
		c-0.1-26,3.3-22.7-22-22.7c-310.3-0.1-620.7-0.1-931-0.1c-4.5,0-9-0.4-13.5,0.1c-9.2,0.9-11.6-3.5-11.3-11.9
		c0.5-15.2,1.3-30.5-0.2-45.5c-1.7-17.1,3.9-21.5,21.2-21.5c310.9,0.6,621.8,0.4,932.7,0.4c3.9,0,7.9-0.4,11.8,0.1
		c9.5,1.1,12.8-2.7,12.6-12.4c-0.6-25.9-0.2-51.7-0.2-77.6c0-24.2,0-24.2-23.9-24.2c-239.5,0-479-0.1-718.5,0.3
		c-12.9,0-18.2-2.7-16.9-16.5c1.3-13.9,1.4-28.2,0-42.1c-1.6-16.1,3.4-20.6,20-20.6c239.5,0.6,479,0.2,718.5,0.8
		c17,0,21.3-4,21.2-21.2c-0.6-335.1-0.4-670.2-0.4-1005.3c0-3.9,0.1-7.9,0-11.8c-0.6-12.5-7.5-20.9-18.2-26.3
		c-8.8-4.4-18.5-4-28.1-4C2136.4,551.7,1781.1,551.7,1425.8,551.7z M1425.5,2130.3c-305.8,0-611.6,0.1-917.4-0.3
		c-13.6,0-18,2.9-18,17.4c0.6,133.2,0.3,266.5,0.4,399.7c0,29.4,12.5,41.6,42.4,41.6c594.2,0,1188.4,0,1782.6,0
		c32.1,0,43.8-11.7,43.8-43.7c0-131.5-0.3-263.1,0.4-394.6c0.1-16-3.5-20.5-20.1-20.5C2034.8,2130.5,1730.1,2130.3,1425.5,2130.3z
		 M1424.9,473.3c140,0,280,0,420,0c165.8,0,331.7-0.1,497.5,0.3c12.7,0,17.5-2.6,17.2-16.5c-0.9-47.2-0.2-94.4-0.4-141.7
		c-0.1-24.8-12.5-37.1-37.1-37.8c-5.6-0.2-11.2-0.1-16.9-0.1c-346.9,0-693.7,0-1040.6,0c-240.6,0-481.2,0-721.9,0
		c-45.1,0-52.3,7.3-52.3,53.2c0,39.9-0.1,79.8,0.1,119.7c0.1,26.2-3.4,22.8,23.7,22.8C817.7,473.3,1121.3,473.3,1424.9,473.3z"/>
	<path class="st0" d="M2342.8,1111.3c-0.2,189.3-153.5,339-339.3,340.2c-190.4,1.2-346.2-152.7-341.7-348.7
		c4.1-179.8,148.5-332.5,342.2-332C2192.3,771.3,2343.1,925,2342.8,1111.3z"/>
	<path class="st1" d="M971.1,770.5c147.3,0,294.6,0.2,441.9-0.3c13.9,0,19,2.1,19,18c-0.6,215.3-0.6,430.6,0,645.9
		c0,15.4-4.4,18.2-18.8,18.2c-295.7-0.4-591.4-0.4-887.1,0.1c-15.4,0-18.3-4.5-18.3-18.9c0.5-214.7,0.5-429.5-0.1-644.3
		c0-16.2,5.1-19.1,19.9-19C675.4,770.7,823.3,770.5,971.1,770.5z M969.9,1371.6c121.4,0,242.8-0.1,364.2,0.2
		c12.1,0,17.8-1.6,17.7-16.1c-0.5-163-0.5-325.9,0-488.9c0-13.7-4.5-16.7-17.3-16.7c-243.3,0.3-486.7,0.4-730-0.1
		c-13.8,0-16.5,4.5-16.5,17.2c0.4,162.4,0.4,324.8-0.1,487.2c0,14.3,4.2,17.5,17.9,17.5C727.1,1371.4,848.5,1371.6,969.9,1371.6z"/>
	<path class="st0" d="M697.4,1619.7c57.3,0,114.6,0.3,171.9-0.2c12.2-0.1,16.5,2.7,16.4,15.7c-0.6,82.6-0.6,165.2,0,247.8
		c0.1,13.3-4.6,15.6-16.6,15.6c-114.6-0.4-229.2-0.5-343.9,0.1c-14.6,0.1-17.6-4.9-17.5-18.4c0.6-80.9,0.6-161.8,0-242.7
		c-0.1-13.7,3.3-18.4,17.7-18.2C582.8,1620.2,640.1,1619.7,697.4,1619.7z"/>
	<path class="st0" d="M1242.7,1898.4c-57.9,0-115.8-0.2-173.7,0.2c-11.3,0.1-15.6-2.5-15.5-14.8c0.5-83.2,0.5-166.4,0-249.6
		c-0.1-12.2,4.1-14.8,15.5-14.8c115.8,0.4,231.6,0.5,347.4-0.1c13.3-0.1,15.6,4.6,15.5,16.5c-0.5,82.1-0.6,164.1,0.1,246.2
		c0.1,13.8-4.5,16.7-17.2,16.5C1357.3,1898,1300,1898.4,1242.7,1898.4z"/>
	<path class="st1" d="M685.3,2358.7c0.3-53.6,41.6-94,95.8-93.7c51.3,0.3,94.5,44.1,93.7,95.3c-0.9,52.7-43.7,94.2-96.9,93.7
		C725.5,2453.6,685.1,2411.9,685.3,2358.7z M779.1,2343.8c-10,1.5-15.8,7.1-15.1,17c0.6,9,6.6,14.6,15.7,14.1
		c9.9-0.5,15.2-6.4,14.7-16.7C793.9,2348.6,787.6,2344.8,779.1,2343.8z"/>
	<path class="st1" d="M1523.4,2359c0.2,53.3-40.2,94.6-92.7,95c-53,0.4-96.1-41.6-96.4-94c-0.4-51.6,42.3-94.8,93.7-95
		C1482.1,2264.8,1523.2,2305.2,1523.4,2359z M1429.9,2343.9c-8.6,0.9-14.9,4.6-15.5,14.2c-0.6,10.2,4.5,16.3,14.5,16.7
		c10,0.4,15.9-5.6,15.9-15.6C1444.7,2350.1,1439.1,2345.1,1429.9,2343.9z"/>
	<path class="st1" d="M1660.2,2360.3c-0.3-54,40.5-95.2,94.2-95.3c52-0.1,94.3,41.7,94.9,93.7c0.7,51.5-41.9,95-93.4,95.3
		C1701.8,2454.3,1660.5,2413.9,1660.2,2360.3z M1754,2343.9c-9.3,1.2-15,6.1-15.1,15.3c-0.1,9.9,5.7,16,15.7,15.7
		c10-0.3,15.2-6.4,14.6-16.6C1768.7,2348.6,1762.6,2344.8,1754,2343.9z"/>
	<path class="st1" d="M2173.8,2359.5c0,52.4-41.7,94.4-93.7,94.5c-53.6,0.1-95.4-41.3-95.4-94.5c0-53.2,41.8-94.6,95.4-94.5
		C2132.2,2265.1,2173.8,2307,2173.8,2359.5z M2077.8,2343.1c-7.6,3-15.2,7.4-14.3,17.3c0.9,9.2,7.4,15.7,17,14.8
		c8.4-0.8,14.6-6.9,14.4-15.8C2094.7,2349.9,2088.1,2344.9,2077.8,2343.1z"/>
	<path class="st1" d="M1198.9,2359.9c-0.1,53.2-42,94.3-95.7,94.1c-51.9-0.2-93.5-42.5-93.3-95c0.1-52.2,42.1-94.1,94.2-94.1
		C1157.6,2265,1199,2306.4,1198.9,2359.9z M1120.6,2358.9c-2.5-9-7.6-16-17.2-15.1c-9.2,0.8-15.6,7.4-14.6,17.1
		c0.9,8.5,7,14.6,15.8,14.3C1114.1,2374.9,1119.1,2368.2,1120.6,2358.9z"/>
	<path class="st2" d="M1023.1,1316.5c-29.2,0-58.4-0.4-87.7,0.2c-10.3,0.2-13.6-3.2-13.5-13.5c0.4-44.4,0.5-88.8,0-133.2
		c-0.1-10.9,2.9-14.7,14.2-14.6c58.4,0.5,116.9,0.4,175.3,0c10.2-0.1,13.7,3.2,13.6,13.5c-0.4,44.4-0.5,88.8,0,133.2
		c0.1,11-3.1,14.9-14.3,14.6C1081.6,1316.1,1052.3,1316.5,1023.1,1316.5z"/>
	<path class="st2" d="M756.3,1067.9c-29.2,0-58.4-0.3-87.5,0.2c-10,0.2-13.9-2.8-13.8-13.3c0.4-44.3,0.4-88.7,0-133
		c-0.1-9.6,3.5-12.6,12.8-12.6c59.5,0.3,119,0.3,178.5,0c8.6,0,11.9,2.7,11.9,11.6c-0.3,44.9-0.3,89.8,0,134.7
		c0.1,9.5-3.1,12.8-12.6,12.6C815.8,1067.6,786.1,1067.9,756.3,1067.9z"/>
</g>
</svg>
