<?xml version="1.0" encoding="utf-8"?>
<!-- Generator: Adobe Illustrator 18.0.0, SVG Export Plug-In . SVG Version: 6.00 Build 0)  -->
<!DOCTYPE svg PUBLIC "-//W3C//DTD SVG 1.1//EN" "http://www.w3.org/Graphics/SVG/1.1/DTD/svg11.dtd">
<svg version="1.1" id="Layer_1" xmlns="http://www.w3.org/2000/svg" xmlns:xlink="http://www.w3.org/1999/xlink" x="0px" y="0px"
	 viewBox="0.5 -67.5 388 285" enable-background="new 0.5 -67.5 388 285" xml:space="preserve">
<g>
	<path fill="#FFFFFF" d="M304.8-44.8v43.5H148.3l0,0c-0.3,2.2-0.5,4.3-0.8,6.4c-0.6,5-1.2,9.9-1.7,14.9c-0.6,5.3-1.2,10.4-1.9,15.7
		c-0.8,6.1-1.4,12.2-2.2,18.3c-0.6,5.4-1.3,10.7-1.9,16.1c-0.6,4.8-1.1,9.7-1.7,14.5c-0.6,5.4-1.3,10.7-1.9,16.1
		c-0.7,5.7-1.4,11.5-2,17.1c-0.7,5.7-1.4,11.5-2,17.1c-0.6,5.4-1.3,10.6-1.9,16c-0.5,4.8-1.1,9.5-1.7,14.3
		c-1.1,9.7-2.3,19.5-3.5,29.2H78.1C85.8,129.2,93.6,64,101.3-1.2H1v-43.5L304.8-44.8L304.8-44.8z"/>
	<path fill="#FFFFFF" d="M388.2,130.2c0,14.6,0,29.1,0,43.6c-73,0-146,0-219.1,0c0.2-1.7,0.4-3.3,0.5-4.9c0.5-4.9,1.1-9.9,1.6-14.8
		c0.6-5.3,1.2-10.4,1.7-15.7c0.3-2.4,0.5-4.9,0.8-7.3c0.1-0.8,0.3-1,0.8-0.9c0.2,0,0.2,0,0.4,0c70.7,0,141.4,0,212.1,0
		C387.4,130.2,387.8,130.2,388.2,130.2z"/>
	<path fill="#FFFFFF" d="M346.8,46.4c0,14.6,0,29,0,43.5c-52.9,0-113.7,0-166.8,0c1.6-14.6,3.2-29.1,4.8-43.5
		C236.3,46.4,295.5,46.4,346.8,46.4z"/>
</g>
</svg>
