<?xml version="1.0" encoding="utf-8"?>
<!-- Generator: Adobe Illustrator 18.0.0, SVG Export Plug-In . SVG Version: 6.00 Build 0)  -->
<!DOCTYPE svg PUBLIC "-//W3C//DTD SVG 1.1//EN" "http://www.w3.org/Graphics/SVG/1.1/DTD/svg11.dtd">
<svg version="1.1" id="Layer_1" xmlns="http://www.w3.org/2000/svg" xmlns:xlink="http://www.w3.org/1999/xlink" x="0px" y="0px"
	 viewBox="0.5 -67.5 388 285" enable-background="new 0.5 -67.5 388 285" xml:space="preserve">
<path fill="#FFFFFF" d="M2.8,215.6c0-93.8,0-187.4,0-281.2c14.7,5.4,29.2,10.7,43.8,16c0,63.4,0,126.9,0,190.6
	c0.7-0.4,1.2-0.6,1.6-0.8c16.5-9.1,33-18.2,49.6-27.3c12.8-7,25.6-14.1,38.4-21.2c1.1-0.7,2.3-0.9,3.7-0.9c28.8,0,57.7,0,86.6,0
	c0.6,0,1.2,0,1.8,0c0,0.1,0.1,0.2,0.1,0.4C153.2,132.6,78.1,174,2.8,215.6z"/>
<path fill="#FFFFFF" d="M386.2-47.3v36.9H158.5c-0.4-1.3-0.4-35.6,0-36.9C158.5-47.3,386.2-47.3,386.2-47.3z"/>
<path fill="#FFFFFF" d="M158.3,56.5c0-12.4,0-24.6,0-36.8c63.8,0,116.3,0,180,0c0,12.3,0,24.5,0,36.8
	C274.5,56.5,222.1,56.5,158.3,56.5z"/>
<path fill="#FFFFFF" d="M82-10.6c0-12.3,0-24.5,0-36.8c15.9,0,31.7,0,47.7,0c0,12.3,0,24.5,0,36.7C128.6-10.3,85.1-10.3,82-10.6z"/>
<path fill="#FFFFFF" d="M82,19.7c15.9,0,31.7,0,47.7,0c0,12.3,0,24.4,0,36.6c-1.2,0.4-46.2,0.4-47.7,0C82,44.2,82,32,82,19.7z"/>
</svg>
