<?xml version="1.0" encoding="utf-8"?>
<!-- Generator: Adobe Illustrator 18.0.0, SVG Export Plug-In . SVG Version: 6.00 Build 0)  -->
<!DOCTYPE svg PUBLIC "-//W3C//DTD SVG 1.1//EN" "http://www.w3.org/Graphics/SVG/1.1/DTD/svg11.dtd">
<svg version="1.1" id="Layer_1" xmlns="http://www.w3.org/2000/svg" xmlns:xlink="http://www.w3.org/1999/xlink" x="0px" y="0px"
	 viewBox="0 0 595.3 841.9" enable-background="new 0 0 595.3 841.9" xml:space="preserve">
<g>
	<path fill="#FFFFFF" d="M315.2,420.9L315,421c-0.2-0.1-0.4-0.1-0.6-0.1H315.2z"/>
	<path fill="#FFFFFF" d="M276.3,420.9h-0.1c0,0-0.1,0-0.1,0C276.1,420.9,276.2,420.9,276.3,420.9z"/>
	<path fill="#FFFFFF" d="M275.1,421C275.1,421,275.1,421,275.1,421L275.1,421C275.1,420.9,275.1,421,275.1,421z"/>
	<path fill="#FFFFFF" d="M275.1,420.9L275.1,420.9C275.1,421,275.1,420.9,275.1,420.9C275.1,420.9,275.1,420.9,275.1,420.9z"/>
	<path fill="#FFFFFF" d="M283.1,420.9C283,420.9,283,420.9,283.1,420.9l-0.2,0C282.9,420.9,283,420.9,283.1,420.9z"/>
	<path fill="#FFFFFF" d="M274,421C274,421,274,421,274,421c0-0.1,0-0.1,0-0.1v-0.1C274,420.9,274,421,274,421z"/>
	<path fill="#FFFFFF" d="M275.7,421.4c-0.5-0.1-0.6-0.3-0.7-0.8c0,0,0,0,0,0.1c0,0.4,0.2,0.6,0.5,0.7
		C275.6,421.3,275.7,421.3,275.7,421.4z"/>
	<path fill="#FFFFFF" d="M275.5,421.3c-0.3-0.1-0.4-0.3-0.5-0.7c0,0.1,0.1,0.3,0.3,0.5C275.4,421.2,275.5,421.2,275.5,421.3z"/>
	<polygon fill="#FFFFFF" points="212.4,420.9 212.4,421 212.4,420.9 	"/>
	<g>
		<path fill="#FFFFFF" d="M149.2,469l0.5,1.1c-0.5,0-1.1,0-1.6,0c-5.5,0-10.7-1.1-15.6-3.2c-4.8-2.1-9.1-5-12.8-8.6
			c-3.7-3.6-6.6-7.9-8.7-12.7c-2.1-4.8-3.2-10-3.2-15.4v-55.3c0-0.8,0.3-1.5,0.8-2.1c0.5-0.6,1.3-0.9,2.1-0.9h7.1
			c0.8,0,1.5,0.3,2.2,0.9c0.7,0.6,1,1.3,1,2.2v53.6c0,4.1,0.7,7.9,2,11.4c1.3,3.5,3.2,6.6,5.6,9.2c2.3,2.6,5.2,4.7,8.6,6.1
			c2.2,0.9,4.5,1.6,7,1.9l0.5,1.1l0.5,1.1l3.7,8.6L149.2,469z"/>
		<path fill="#FFFFFF" d="M189.2,374.9v55.3c0,5.6-1.1,10.9-3.2,15.7c-2.1,4.8-5,9.1-8.6,12.7c-3.6,3.6-7.9,6.5-12.9,8.5
			c-3.3,1.4-6.8,2.3-10.4,2.7l-0.4-1l-0.4-1l-3.5-8.2l-0.5-1.1l-0.5-1.1c0.1,0,0.2,0,0.2,0c4.2,0,8-0.8,11.4-2.3
			c3.3-1.5,6.2-3.6,8.4-6.2c2.3-2.6,4-5.7,5.2-9.2c1.2-3.5,1.8-7.3,1.8-11.2v-53.6c0-0.9,0.4-1.7,1.1-2.3c0.6-0.5,1.4-0.8,2.3-0.8
			h6.3c0.8,0,1.6,0.2,2.3,0.6l0,0C188.7,372.9,189.2,373.8,189.2,374.9z"/>
	</g>
	<g>
		<path fill="#FFFFFF" d="M97.3,375.6c0,0.7-0.1,1.3-0.4,1.7l-36.1,81.3L54.2,443l30.7-70.5h8.8C96.9,372.6,97.3,374.7,97.3,375.6z"
			/>
		<path fill="#FFFFFF" d="M20.2,372.6L58,461.8l-2.3,5.2c-0.7,1.5-2,2.3-3.8,2.3h-0.4c-1.2,0-1.9-0.2-2.4-0.6
			c-0.4-0.3-0.8-0.9-1.2-1.7c-7.3-16.8-13.9-31.7-19.7-44.9c-2.4-5.6-4.8-11.2-7.2-16.5c-2.4-5.4-4.5-10.2-6.4-14.4
			c-2.2-5-4.3-9.7-6.2-14c-0.2-0.5-0.3-0.9-0.4-1.2C8,375.7,8,375.4,8,375.2c0-0.8,0.3-2.6,3.3-2.6L20.2,372.6L20.2,372.6z"/>
	</g>
	<g>
		<path fill="#FFFFFF" d="M261.2,457.3c0.4,0.7,0.6,1.4,0.6,2.1l0,7c-0.3,1.8-1.3,2.8-3,2.9h-35.7l-0.5-1.1l-0.5-1.1l-3.8-9
			l-0.5-1.1l-0.5-1.1h41.3C260.1,456.1,260.9,456.7,261.2,457.3z"/>
		<path fill="#FFFFFF" d="M217.6,468.2l0.5,1.1h-15.8c-1.9,0-3.1-1.1-3.1-3v-90.6c0-1.9,1.2-3,3.2-3h6.9c1.9,0,3.1,1.1,3.1,3v80.3
			l0,0l0,0l0,0.1l0.5,1.1l0.5,1.1l3.8,9L217.6,468.2z"/>
	</g>
	<g>
		<g>
			<path fill="#FFFFFF" d="M285.8,387l-0.7-1.7l-1.1-2.5l-1.2-2.7l-2.7-6.4h-29.4l0.3,0.2c-1.8,0.4-2.9,1.3-3.4,2.7l0,0.2v6.5
				c0,2.3,1.9,3.6,5.2,3.6h20v78c0,1.9,1.2,3.1,3.1,3.1c0.1,0,0.2,0,0.2,0h6.6c0.1,0,0.2,0,0.2,0c1.9,0,3.1-1.2,3.1-3.1c0,0,0,0,0,0
				v-77.1L285.8,387z M274,465.1C274,465,274,465,274,465.1l0-0.1C274,465,274,465,274,465.1C274,465.1,274,465.1,274,465.1z
				 M275.1,465.1C275.1,465,275.1,465,275.1,465.1l0-0.1C275.1,465,275.1,465,275.1,465.1L275.1,465.1z M275.1,465.1
				C275.1,465.1,275.1,465.2,275.1,465.1c0,0.2,0.1,0.4,0.3,0.6c0,0,0.1,0.1,0.1,0.1c0.1,0,0.1,0.1,0.2,0.1
				C275.3,465.9,275.1,465.6,275.1,465.1z"/>
		</g>
		<path fill="#FFFFFF" d="M311.7,376.6l0,0.2v6.5c0,2.3-1.9,3.6-5.2,3.6h-15.8l-0.1,0.1h-0.8l-3.3-7.7l-0.8-1.9l-1.6-3.7h22.4
			c0.4,0,0.7,0,1.1,0.1c0.3,0,0.6,0.1,0.9,0.1C310.2,374.3,311.3,375.2,311.7,376.6z"/>
	</g>
	<g>
		<path fill="#FFFFFF" d="M406.1,465.9c0.1,0.3,0.1,0.6,0.1,0.8c0,0.8-0.3,2.6-3.3,2.6h-8.9l-37.8-89.3l2.3-5.2
			c0.7-1.5,2-2.3,3.8-2.3h0.4c1.2,0,1.9,0.2,2.4,0.6c0.4,0.3,0.8,0.9,1.2,1.8c7.3,16.7,13.9,31.7,19.7,44.9
			c2.4,5.6,4.8,11.2,7.2,16.5c2.4,5.4,4.5,10.2,6.4,14.4c2.2,5,4.3,9.7,6.2,14C405.9,465.2,406,465.6,406.1,465.9z"/>
		<path fill="#FFFFFF" d="M353.2,383.3l6.6,15.5l-30.7,70.5h-8.8c-3.3,0-3.6-2.1-3.6-3c0-0.7,0.1-1.3,0.4-1.7L353.2,383.3z"/>
	</g>
	<g>
		<path fill="#FFFFFF" d="M427.4,436l1.1,2.5v27.8c0,1.9-1.1,3-3.1,3h-7c-2,0-3.2-1.1-3.2-3v-41.7c0-2.1,1.2-3.3,3.2-3.3h2.7
			l0.5,1.1l0.5,1.1l4.3,10.1L427.4,436z"/>
		<path fill="#FFFFFF" d="M473.5,429.1c-2.5,1.7-5.2,3.1-8.1,4l20.2,33.1c0.4,0.8,0.6,1.2,0.6,1.6c0,0.7-0.4,1.5-2.3,1.5h-10
			c-1,0-1.8-0.3-2.4-0.9c-0.5-0.4-1-1-1.4-1.6l-19.9-32.7h-19l-0.5-1.1l-0.5-1.1l-3.7-8.7l-0.5-1.1l-0.5-1.1h32.3
			c2.2-0.2,4.4-0.8,6.3-1.8c2-1,3.8-2.4,5.3-4s2.7-3.5,3.6-5.6c0.9-2.1,1.3-4.2,1.3-6.4s-0.5-4.4-1.4-6.6c-0.9-2.2-2.2-4.1-3.7-5.8
			c-1.5-1.7-3.4-3-5.6-4c-2.1-1-4.4-1.5-6.7-1.5h-32.3c-2,0-3.2-1.2-3.2-3.3v-6.6c0-1.9,1.2-3,3.2-3H457c4.1,0,8.1,0.8,11.8,2.5
			c3.7,1.6,6.9,3.9,9.7,6.6c2.7,2.8,4.9,6.1,6.6,9.8c1.6,3.7,2.5,7.7,2.5,11.8c0,3.5-0.6,6.8-1.8,10.1c-1.2,3.2-2.8,6.2-4.9,8.8
			C478.8,424.8,476.3,427.1,473.5,429.1z"/>
	</g>
	<g>
		<path fill="#FFFFFF" d="M534.2,383.3l6.6,15.5l-30.7,70.5h-8.8c-3.3,0-3.6-2.1-3.6-3c0-0.7,0.1-1.3,0.4-1.7L534.2,383.3z"/>
		<path fill="#FFFFFF" d="M587.3,466.7c0,0.8-0.3,2.6-3.3,2.6h-8.9l-37.8-89.3l2.3-5.2c0.7-1.5,2-2.3,3.8-2.3h0.4
			c1.2,0,1.9,0.2,2.4,0.6c0.4,0.3,0.8,0.9,1.2,1.8c7.3,16.7,13.9,31.7,19.7,44.9c2.4,5.6,4.8,11.2,7.2,16.5
			c2.4,5.4,4.5,10.2,6.4,14.4c2.3,5,4.3,9.7,6.2,14c0.2,0.5,0.3,0.9,0.4,1.2C587.3,466.2,587.3,466.4,587.3,466.7z"/>
	</g>
</g>
</svg>
