<?xml version="1.0" encoding="utf-8"?>
<!-- Generator: Adobe Illustrator 18.0.0, SVG Export Plug-In . SVG Version: 6.00 Build 0)  -->
<!DOCTYPE svg PUBLIC "-//W3C//DTD SVG 1.1//EN" "http://www.w3.org/Graphics/SVG/1.1/DTD/svg11.dtd">
<svg version="1.1" id="Layer_1" xmlns="http://www.w3.org/2000/svg" xmlns:xlink="http://www.w3.org/1999/xlink" x="0px" y="0px"
	 viewBox="0 0 150.1 25.5" enable-background="new 0 0 150.1 25.5" xml:space="preserve">
<g>
	<path fill="#FFFFFF" d="M79.6,12.7L79.6,12.7c-0.1,0-0.1,0-0.2,0H79.6z"/>
	<path fill="#FFFFFF" d="M69.5,12.7L69.5,12.7C69.5,12.7,69.5,12.7,69.5,12.7C69.5,12.7,69.5,12.7,69.5,12.7z"/>
	<path fill="#FFFFFF" d="M69.2,12.7C69.2,12.7,69.2,12.7,69.2,12.7L69.2,12.7C69.2,12.7,69.2,12.7,69.2,12.7z"/>
	<path fill="#FFFFFF" d="M69.2,12.7L69.2,12.7C69.2,12.7,69.2,12.7,69.2,12.7C69.2,12.7,69.2,12.7,69.2,12.7z"/>
	<path fill="#FFFFFF" d="M71.3,12.7C71.3,12.7,71.3,12.7,71.3,12.7L71.3,12.7C71.3,12.7,71.3,12.7,71.3,12.7z"/>
	<path fill="#FFFFFF" d="M68.9,12.8C68.9,12.7,68.9,12.7,68.9,12.8C68.9,12.7,68.9,12.7,68.9,12.8L68.9,12.8
		C68.9,12.7,68.9,12.7,68.9,12.8z"/>
	<path fill="#FFFFFF" d="M69.4,12.8c-0.1,0-0.2-0.1-0.2-0.2c0,0,0,0,0,0C69.2,12.7,69.3,12.8,69.4,12.8
		C69.4,12.8,69.4,12.8,69.4,12.8z"/>
	<path fill="#FFFFFF" d="M69.3,12.8c-0.1,0-0.1-0.1-0.1-0.2C69.2,12.7,69.3,12.7,69.3,12.8C69.3,12.8,69.3,12.8,69.3,12.8z"/>
	<polygon fill="#FFFFFF" points="53,12.7 53,12.7 53,12.7 	"/>
	<g>
		<path fill="#FFFFFF" d="M36.6,25.2l0.1,0.3c-0.1,0-0.3,0-0.4,0c-1.4,0-2.8-0.3-4-0.8c-1.3-0.5-2.4-1.3-3.3-2.2
			c-0.9-0.9-1.7-2-2.3-3.3c-0.6-1.2-0.8-2.6-0.8-4V0.8c0-0.2,0.1-0.4,0.2-0.5C26.2,0.1,26.4,0,26.6,0h1.9c0.2,0,0.4,0.1,0.6,0.2
			c0.2,0.2,0.3,0.3,0.3,0.6v13.9c0,1.1,0.2,2,0.5,2.9c0.3,0.9,0.8,1.7,1.4,2.4c0.6,0.7,1.4,1.2,2.2,1.6c0.6,0.2,1.2,0.4,1.8,0.5
			l0.1,0.3l0.1,0.3l0.9,2.2L36.6,25.2z"/>
		<path fill="#FFFFFF" d="M47,0.8v14.3c0,1.4-0.3,2.8-0.8,4.1c-0.5,1.2-1.3,2.4-2.2,3.3c-0.9,0.9-2.1,1.7-3.3,2.2
			c-0.9,0.4-1.8,0.6-2.7,0.7l-0.1-0.3l-0.1-0.3l-0.9-2.1l-0.1-0.3l-0.1-0.3c0,0,0,0,0.1,0c1.1,0,2.1-0.2,2.9-0.6
			c0.9-0.4,1.6-0.9,2.2-1.6c0.6-0.7,1-1.5,1.4-2.4c0.3-0.9,0.5-1.9,0.5-2.9V0.8c0-0.2,0.1-0.4,0.3-0.6C44,0.1,44.2,0,44.4,0H46
			c0.2,0,0.4,0.1,0.6,0.2l0,0C46.8,0.3,47,0.5,47,0.8z"/>
	</g>
	<g>
		<path fill="#FFFFFF" d="M23.1,1c0,0.2,0,0.3-0.1,0.4l-9.4,21.1l-1.7-4l8-18.3h2.3C23.1,0.2,23.1,0.7,23.1,1z"/>
		<path fill="#FFFFFF" d="M3.2,0.2L13,23.3l-0.6,1.3c-0.2,0.4-0.5,0.6-1,0.6h-0.1c-0.3,0-0.5,0-0.6-0.1c-0.1-0.1-0.2-0.2-0.3-0.4
			C8.4,20.3,6.7,16.5,5.2,13C4.6,11.6,4,10.1,3.4,8.8C2.8,7.4,2.2,6.1,1.7,5C1.1,3.7,0.6,2.5,0.1,1.4C0.1,1.3,0,1.2,0,1.1
			C0,1,0,0.9,0,0.9c0-0.2,0.1-0.7,0.9-0.7L3.2,0.2L3.2,0.2z"/>
	</g>
	<g>
		<path fill="#FFFFFF" d="M65.6,22.1c0.1,0.2,0.2,0.4,0.2,0.5l0,1.8c-0.1,0.5-0.3,0.7-0.8,0.8h-9.3L55.7,25l-0.1-0.3l-1-2.3
			l-0.1-0.3l-0.1-0.3H65C65.4,21.8,65.5,22,65.6,22.1z"/>
		<path fill="#FFFFFF" d="M54.3,25l0.1,0.3h-4.1c-0.5,0-0.8-0.3-0.8-0.8V1c0-0.5,0.3-0.8,0.8-0.8h1.8C52.7,0.2,53,0.5,53,1v20.8l0,0
			l0,0l0,0l0.1,0.3l0.1,0.3l1,2.3L54.3,25z"/>
	</g>
	<g>
		<g>
			<path fill="#FFFFFF" d="M72,3.9l-0.2-0.4l-0.3-0.6l-0.3-0.7l-0.7-1.7h-7.6L63,0.5c-0.5,0.1-0.8,0.3-0.9,0.7l0,0.1V3
				c0,0.6,0.5,0.9,1.4,0.9h5.2v20.2c0,0.5,0.3,0.8,0.8,0.8c0,0,0,0,0.1,0h1.7c0,0,0,0,0.1,0c0.5,0,0.8-0.3,0.8-0.8c0,0,0,0,0,0v-20
				L72,3.9z M68.9,24.2C68.9,24.2,68.9,24.2,68.9,24.2L68.9,24.2C68.9,24.1,68.9,24.2,68.9,24.2C68.9,24.2,68.9,24.2,68.9,24.2z
				 M69.2,24.2C69.2,24.2,69.2,24.1,69.2,24.2L69.2,24.2C69.2,24.1,69.2,24.1,69.2,24.2L69.2,24.2z M69.2,24.2
				C69.2,24.2,69.2,24.2,69.2,24.2c0,0.1,0,0.1,0.1,0.2c0,0,0,0,0,0c0,0,0,0,0.1,0C69.3,24.4,69.2,24.3,69.2,24.2z"/>
		</g>
		<path fill="#FFFFFF" d="M78.7,1.2L78.7,1.2l0,1.8c0,0.6-0.5,0.9-1.4,0.9h-4.1l0,0H73l-0.9-2L72,1.4l-0.4-1h5.8c0.1,0,0.2,0,0.3,0
			c0.1,0,0.2,0,0.2,0C78.3,0.6,78.6,0.9,78.7,1.2z"/>
	</g>
	<g>
		<path fill="#FFFFFF" d="M103.2,24.4c0,0.1,0,0.1,0,0.2c0,0.2-0.1,0.7-0.9,0.7H100L90.2,2.1l0.6-1.3c0.2-0.4,0.5-0.6,1-0.6h0.1
			c0.3,0,0.5,0,0.6,0.1c0.1,0.1,0.2,0.2,0.3,0.5C94.8,5.1,96.5,9,98,12.4c0.6,1.5,1.2,2.9,1.9,4.3c0.6,1.4,1.2,2.6,1.6,3.7
			c0.6,1.3,1.1,2.5,1.6,3.6C103.1,24.2,103.2,24.3,103.2,24.4z"/>
		<path fill="#FFFFFF" d="M89.5,3l1.7,4l-7.9,18.3h-2.3c-0.8,0-0.9-0.6-0.9-0.8c0-0.2,0-0.3,0.1-0.4L89.5,3z"/>
	</g>
	<g>
		<path fill="#FFFFFF" d="M108.7,16.6l0.3,0.6v7.2c0,0.5-0.3,0.8-0.8,0.8h-1.8c-0.5,0-0.8-0.3-0.8-0.8V13.7c0-0.5,0.3-0.9,0.8-0.9
			h0.7l0.1,0.3l0.1,0.3l1.1,2.6L108.7,16.6z"/>
		<path fill="#FFFFFF" d="M120.6,14.8c-0.6,0.4-1.3,0.8-2.1,1l5.2,8.6c0.1,0.2,0.1,0.3,0.1,0.4c0,0.2-0.1,0.4-0.6,0.4h-2.6
			c-0.3,0-0.5-0.1-0.6-0.2c-0.1-0.1-0.3-0.3-0.4-0.4l-5.2-8.5h-4.9l-0.1-0.3l-0.1-0.3l-1-2.3l-0.1-0.3l-0.1-0.3h8.4
			c0.6,0,1.1-0.2,1.6-0.5c0.5-0.3,1-0.6,1.4-1c0.4-0.4,0.7-0.9,0.9-1.4c0.2-0.5,0.3-1.1,0.3-1.7s-0.1-1.1-0.4-1.7
			c-0.2-0.6-0.6-1.1-1-1.5c-0.4-0.4-0.9-0.8-1.4-1c-0.6-0.3-1.1-0.4-1.7-0.4H108c-0.5,0-0.8-0.3-0.8-0.9V1c0-0.5,0.3-0.8,0.8-0.8
			h8.4c1.1,0,2.1,0.2,3.1,0.6c1,0.4,1.8,1,2.5,1.7c0.7,0.7,1.3,1.6,1.7,2.5c0.4,1,0.6,2,0.6,3.1c0,0.9-0.2,1.8-0.5,2.6
			c-0.3,0.8-0.7,1.6-1.3,2.3C122,13.7,121.4,14.3,120.6,14.8z"/>
	</g>
	<g>
		<path fill="#FFFFFF" d="M136.4,3l1.7,4l-8,18.3h-2.3c-0.8,0-0.9-0.6-0.9-0.8c0-0.2,0-0.3,0.1-0.4L136.4,3z"/>
		<path fill="#FFFFFF" d="M150.1,24.6c0,0.2-0.1,0.7-0.9,0.7H147l-9.8-23.1l0.6-1.3c0.2-0.4,0.5-0.6,1-0.6h0.1c0.3,0,0.5,0,0.6,0.1
			c0.1,0.1,0.2,0.2,0.3,0.5c1.9,4.3,3.6,8.2,5.1,11.6c0.6,1.5,1.2,2.9,1.9,4.3c0.6,1.4,1.2,2.6,1.6,3.7c0.6,1.3,1.1,2.5,1.6,3.6
			c0.1,0.1,0.1,0.2,0.1,0.3C150.1,24.5,150.1,24.5,150.1,24.6z"/>
	</g>
</g>
</svg>
