<?xml version="1.0" encoding="utf-8"?>
<!-- Generator: Adobe Illustrator 25.0.0, SVG Export Plug-In . SVG Version: 6.00 Build 0)  -->
<svg version="1.1" id="Layer_1" xmlns="http://www.w3.org/2000/svg" xmlns:xlink="http://www.w3.org/1999/xlink" x="0px" y="0px"
	 viewBox="0 0 327.7 285" style="enable-background:new 0 0 327.7 285;" xml:space="preserve">
<style type="text/css">
	.st0{fill:#FFFFFF;enable-background:new    ;}
</style>
<g>
	<path class="st0" d="M42.8,28.1h40.3v30H42.8C42.4,57,42.4,29.2,42.8,28.1z"/>
	<rect x="100.3" y="28.1" class="st0" width="110.6" height="30"/>
	<rect x="42.7" y="82.6" class="st0" width="40.5" height="29.9"/>
	<rect x="100.3" y="82.6" class="st0" width="80.5" height="29.9"/>
	<path class="st0" d="M285.1,0v284.1c-2.2-1.6-4.4-3.3-6.5-5c-10.5-8-21.1-15.9-31.7-23.8c-4.8-3.7-9.7-7.3-14.5-11
		c-10.5-7.9-21-15.8-31.4-23.7c-4.5-3.4-9-6.8-13.5-10.2c-7.7-5.7-15.3-11.5-23-17.3c0,0,0,0,0,0c-7.7,5.7-15.3,11.5-23,17.3
		c-4.5,3.4-9,6.8-13.5,10.2c-10.5,7.9-21,15.8-31.4,23.7c-4.8,3.7-9.7,7.3-14.6,11c-10.5,8-21.1,15.9-31.6,23.8
		c-2.6,1.9-5.2,3.9-7.8,5.8V136.2h39.9v72.6c0.4-0.3,25-18.8,47.1-35.4c18.2-13.7,34.8-26.2,34.9-26.2l0,0
		c0.6,0.4,16.9,12.7,34.9,26.2c22.2,16.6,46.9,35.2,47.1,35.4V28.1L285.1,0z"/>
</g>
</svg>
