<?xml version="1.0" encoding="utf-8"?>
<!-- Generator: Adobe Illustrator 25.0.0, SVG Export Plug-In . SVG Version: 6.00 Build 0)  -->
<svg version="1.1" id="Layer_1" xmlns="http://www.w3.org/2000/svg" xmlns:xlink="http://www.w3.org/1999/xlink" x="0px" y="0px"
	 viewBox="0 0 2834 2834" style="enable-background:new 0 0 2834 2834;" xml:space="preserve">
<style type="text/css">
	.st0{fill:none;stroke:#3D98D0;stroke-width:80;stroke-miterlimit:10;}
	.st1{fill:#3D98D0;}
	.st2{fill:#3D98D0;stroke:#3D98D0;stroke-width:69;stroke-miterlimit:10;}
	.st3{opacity:0.6;fill:none;stroke:#3D98D0;stroke-width:69;stroke-linecap:round;stroke-miterlimit:10;}
</style>
<path class="st0" d="M2453.7,2248.8H400.5c-3.1,0-5.7-2.5-5.7-5.7v-1434c0-3.1,2.5-5.7,5.7-5.7h2053.2c3.1,0,5.7,2.5,5.7,5.7v1434
	C2459.4,2246.2,2456.8,2248.8,2453.7,2248.8z"/>
<path class="st0" d="M2676.6,403.1v2024.2c0,42.9-32.6,77.8-72.7,77.8H230c-40.1,0-72.5-34.9-72.5-77.8V403.1
	c0-42.9,32.4-77.6,72.5-77.6h2374C2644,325.4,2676.6,360.2,2676.6,403.1z"/>
<g>
	<path class="st1" d="M1274.3,1918.6c-36.7-12.4-69.2-31.1-99.8-53.5c-23.4-17.1-23.3-17.5,0.9-34.3c11.8-8.1,24-15.6,35.9-23.5
		c6.3-4.1,11-4,13.5,4.3c8.6,28.5,22.5,54.6,35,81.3C1263.8,1901.6,1272.5,1907.4,1274.3,1918.6z"/>
	<path class="st1" d="M1670.4,1855.7c-33.6,26.5-70,48.2-114.1,63.7c22.4-36.1,39.8-71.1,52.1-108.6c2.1-6.4,5.8-7.7,11.5-4.3
		c18.8,11,36.7,23.3,53.7,36.9C1681.8,1849.9,1674,1852.9,1670.4,1855.7z"/>
	<path class="st1" d="M1549.7,1782.7c-17.4,51.2-39,100-79.4,137.9c-1,0.9-2,2-3.1,2.8c-5.2,3.4-9.8,11.4-16.2,8.1
		c-5.3-2.8-2.2-11-2.3-16.8c-0.2-23.6-0.1-47.2-0.1-70.8c0-26.4,0.2-52.7-0.1-79.1c-0.1-7.6,1.9-10.9,10.3-10.1
		c29.1,2.7,57.4,9.4,85.2,18C1549,1774.2,1551.9,1776.3,1549.7,1782.7z"/>
	<path class="st1" d="M1381.7,1932c-3.9,1.8-7-1.6-9.8-3.8c-17.4-13.3-31.8-29.7-43.5-48.1c-19-29.7-33.8-61.5-44.5-95.2
		c-2.1-6.5-2.1-10.4,5.2-12.5c27.5-8,55.2-15.2,83.9-17.8c8.5-0.8,11.4,1.9,11.3,10.5c-0.4,26.4-0.2,52.7-0.2,79.1
		c0,25.9,0.1,51.8-0.1,77.7C1384.1,1925.5,1385.9,1930.1,1381.7,1932z"/>
	<path class="st1" d="M1384.2,1678c0.1,7.6-2.5,10.3-10.1,11c-34.1,3-67.5,9.8-100.2,20.1c-7.9,2.5-10.4,0.6-11.9-7.4
		c-7.3-40-11.9-80.2-14-120.9c-0.5-10.3,3.3-12.5,12.6-12.2c18.5,0.6,37,0.2,55.4,0.2c18.9,0,37.9,0.3,56.8-0.1
		c8.2-0.2,11.4,2.1,11.3,10.8C1383.8,1612.4,1383.9,1645.2,1384.2,1678z"/>
	<path class="st1" d="M1192.4,1743.8c-27.4,13.7-52.6,31-75.9,50.8c-7.7,6.5-11.6,5.7-17.4-1.6c-46.4-58-75.6-123.6-86.4-197.1
		c-4-26.9-3.3-27,24.8-27h58.3c25,0,50,0.2,75-0.1c7.9-0.1,11.4,1.6,11.8,10.5c2.6,49.4,7.9,98.6,18.4,147
		C1202.7,1734.8,1200.6,1739.7,1192.4,1743.8z"/>
	<path class="st1" d="M1584.8,1579.2c-1.7,41.6-6.8,82.7-14.2,123.7c-1.4,8-4.8,8.4-11.4,6.3c-33.1-10.6-67-17.3-101.6-20.3
		c-7.4-0.7-9.1-3.9-9-10.6c0.2-33.3,0.3-66.5,0-99.8c-0.1-7.2,2.4-9.8,9.6-9.6c19.9,0.3,39.7,0.1,59.6,0.1
		c18.9-0.1,37.9,0.3,56.8-0.2C1582.7,1568.5,1585.1,1571.5,1584.8,1579.2z"/>
	<path class="st1" d="M1822.7,1579.8c-9.4,78.6-38.4,149-87.3,211.3c-6.6,8.4-10.9,10.7-20.4,2.5c-22.7-19.7-47.8-36.5-74.8-50
		c-7.5-3.8-10.1-8.1-8.4-16.3c10.3-47.5,15.9-95.8,18-144.3c0.6-13,5.9-14.8,16.8-14.4c23.6,0.7,47.2,0.2,70.8,0.2
		c25,0,50,0.3,75-0.1C1821,1568.6,1823.8,1570.9,1822.7,1579.8z"/>
	<path class="st1" d="M1782.8,1504.1c-39.7,0-79.5-0.4-119.2,0.3c-10.4,0.2-13.9-3.3-14.2-13.1c-1.6-49.4-7.4-98.4-18-146.7
		c-2.9-13.2,6.1-14.3,14.2-17.2l0.1-0.1c1.8-1,3.6-2.1,5.4-3.1c1.7-0.9,3.3-1.8,5-2.7c21.1-15.6,44-28.5,63.7-46.2
		c3.3-3,6.9-4.8,10.6-0.1c22.8,29,44.4,58.7,57.4,93.8l0.4,0.6l-0.4,0.7c15.2,26.3,23.2,54.9,27.8,84.7l-0.2-0.1
		c0.6,0.7,1.4,1.3,1.7,2.1C1830.4,1502.6,1829.4,1504,1782.8,1504.1z"/>
	<path class="st1" d="M1673.6,1228.9c-16.7,14-34.9,25.7-53.4,37.1c-6.3,3.9-9.5,2.6-11.9-4.7c-12.3-37.4-29.5-72.6-52.7-109.2
		c45.6,17.1,83.5,39.3,118.2,67.3C1678.6,1223.2,1677.8,1225.4,1673.6,1228.9z"/>
	<path class="st1" d="M1576.2,1504.1c-39.6,0-79.2,0-118.9,0c-5,0-9.8-0.2-7.8-7.4c0-2.8,0-5.5,0-8.3c-0.3-32.3-0.5-64.6-0.9-96.9
		c-0.1-6,2.5-7.7,8.3-8.3c35.8-3.9,71.3-9.4,105.6-21c3.6-1.2,7.8-2.8,6.7,4.1c0.4,1,0.9,1.9,1.3,2.9c0.6,0.4,1.3,0.7,1.9,1.1
		c-0.6,0.4-1.3,0.8-1.9,1.2c1.6,10.3,3.2,20.7,4.8,31c1.9,7.2,4.7,14.3,3.3,22c0.2,1.8,0.4,3.6,0.6,5.5c3.7,8.1,2.4,16.6,2.3,25
		c0.2,1.8,0.3,3.7,0.5,5.5c2.7,4.3,2.2,8.9,1.2,13.6c0.2,2.1,0.3,4.1,0.5,6.2c0.1,2.7,0.3,5.3,0.4,8c0.1,2.8,0.1,5.6,0.2,8.4
		C1585.8,1503.7,1581.3,1504.1,1576.2,1504.1z"/>
	<path class="st1" d="M1542.3,1300.7c-27.5,8.2-55.5,13.8-83.9,17.4c-9,1.1-9.9-3.1-9.9-10.2c0.2-26.8,0.1-53.6,0.1-80.4
		c0-26.3-0.1-52.6,0.1-79c0-2.9-1.7-7,2.1-8.7c3.4-1.5,6.1,1.5,8.6,3.3c24.3,17.2,41,40.9,55.6,66.3c14,24.5,25,50.4,34,77.2
		C1551.5,1294.6,1550.7,1298.2,1542.3,1300.7z"/>
	<path class="st1" d="M1384.1,1229.4C1384.2,1229.4,1384.2,1229.4,1384.1,1229.4c0.1,26.3-0.2,52.6,0.2,78.9
		c0.1,7.8-2.2,10.8-10.4,9.7c-28.4-3.6-56.4-9.1-83.8-17.6c-6.2-1.9-9.4-4.2-6.9-11.7c15.6-45.8,35.2-89.3,67.8-125.8
		c8.6-9.6,19.5-24.4,29.8-21.7c8.6,2.3,2.7,21.3,3.2,32.8C1384.7,1192.5,1384.1,1211,1384.1,1229.4z"/>
	<path class="st1" d="M1384.2,1495.8c0.1,7.1-3.5,8.3-9.5,8.3c-39.3-0.1-78.7-0.2-118,0c-7.8,0-9.9-3.3-8-10.3
		c-0.8-14.9,0.3-29.7,2.9-44.4c1-27.3,6.4-54,10.6-80.9c1.2-7.4,4.3-7.5,10.4-5.6c33.6,10.4,68,17.3,103.1,20.1
		c6.9,0.6,8.4,4.4,8.4,10.2C1384.2,1427.3,1384.1,1461.6,1384.2,1495.8z"/>
	<path class="st1" d="M1276.6,1152.4c-22.5,36.5-40,72-52.5,109.7c-2.9,8.6-7.1,6.7-12.3,3.5c-17.2-10.8-34.3-21.8-50.2-34.5
		c-7-5.6-7.4-8.4-0.1-14.1C1195.6,1190.4,1232.6,1169.1,1276.6,1152.4z"/>
	<path class="st1" d="M1200.9,1349.3c-4.7,16.4-7.1,33.5-10.5,50.3c-0.3,2.7-0.6,5.5-1,8.2c1.3,9.4-1.9,18.4-2.9,27.6
		c-0.1,3.9,1.3,7.9-1.5,11.4c-0.7,15.7-1.4,31.4-1.9,47.1c-0.3,7.3-3.1,10.4-11,10.4c-50.8-0.3-101.6-0.5-152.5-0.1
		c-11.3,0.1-10.3-6-9.5-13.3c5.9-49.6,20.2-96.6,43-141c12.7-24.7,28.3-47.5,45.1-69.6c7.6-10,12.9-10.3,19.6-0.2l0.1,0.1
		c22.7,15.5,45.4,31.1,68.1,46.6c0.6-0.2,1.1-0.1,1.3,0.5C1199.6,1329.8,1204.8,1335.5,1200.9,1349.3z"/>
</g>
<g>
	<circle class="st2" cx="949" cy="546.5" r="46.5"/>
	<circle class="st2" cx="695.2" cy="546.5" r="46.5"/>
	<circle class="st2" cx="441.3" cy="546.5" r="46.5"/>
</g>
<line class="st3" x1="2459.4" y1="546.5" x2="1473.7" y2="546.5"/>
</svg>
